<?xml version="1.0" encoding="UTF-8"?>
<svg version="1.1" xmlns="http://www.w3.org/2000/svg" width="500" height="500">
<path d="M0 0 C5.73285766 5.43263319 8.14233888 11.12210115 8.4375 18.875 C8.62759404 28.17693496 2.70515634 36.69054993 -1.5 44.6875 C-2.02480957 45.68934326 -2.54961914 46.69118652 -3.09033203 47.72338867 C-7.10462613 55.35965179 -11.20475979 62.94678767 -15.35522461 70.50976562 C-18.08869373 75.4908128 -20.80071901 80.48199536 -23.48046875 85.4921875 C-29.28151538 96.33765696 -35.14681852 107.11340508 -41.37695312 117.71899414 C-43.75883435 121.7916016 -46.00165118 125.87701078 -48.0625 130.125 C-50.56538172 135.26981242 -53.3271622 140.2351967 -56.1875 145.1875 C-56.61619385 145.94369629 -57.0448877 146.69989258 -57.48657227 147.47900391 C-57.89705811 148.1807373 -58.30754395 148.8824707 -58.73046875 149.60546875 C-59.09551514 150.23606201 -59.46056152 150.86665527 -59.83666992 151.51635742 C-61 153 -61 153 -64 154 C-64 154.66 -64 155.32 -64 156 C-71.81382198 161.04117547 -78.78648892 162.18600619 -88 161 C-98.0332013 158.04813483 -102.93092138 149.57647862 -107.71020508 140.89257812 C-109.32602673 137.87813457 -110.93225801 134.85916483 -112.52841187 131.83428955 C-114.30158131 128.47466066 -116.08482073 125.12038088 -117.8671875 121.765625 C-118.22223862 121.09685333 -118.57728973 120.42808167 -118.94309998 119.73904419 C-121.98582056 114.01309614 -125.07370438 108.31262059 -128.1875 102.625 C-128.66388916 101.75472168 -129.14027832 100.88444336 -129.63110352 99.98779297 C-130.59309302 98.2304655 -131.55508846 96.47314128 -132.51708984 94.71582031 C-135.19151644 89.81784181 -137.84468003 84.90835445 -140.5 80 C-144.74272238 72.16270498 -148.98877559 64.32725387 -153.25 56.5 C-153.74161621 55.59564209 -154.23323242 54.69128418 -154.73974609 53.75952148 C-157.01392414 49.58841498 -159.31030605 45.43428231 -161.6796875 41.31640625 C-162.09444336 40.59324219 -162.50919922 39.87007812 -162.93652344 39.125 C-163.6958864 37.80719016 -164.46155955 36.49298323 -165.23535156 35.18359375 C-168.77380167 29.0462247 -170.70961168 23.0961168 -170 16 C-167.4040242 6.71336492 -164.19226734 1.04367846 -155.90234375 -3.984375 C-149.72552687 -7.28205957 -141.11121996 -7.17099763 -134.4765625 -5.28125 C-122.19397961 0.55415337 -116.5060691 14.50997946 -110.53918457 25.95480347 C-108.55964409 29.75120594 -106.5639046 33.53908836 -104.5703125 37.328125 C-103.98062683 38.45044777 -103.98062683 38.45044777 -103.37902832 39.59544373 C-99.1970382 47.54657219 -94.90113578 55.43332271 -90.578125 63.30859375 C-90.16626953 64.05995605 -89.75441406 64.81131836 -89.33007812 65.58544922 C-88.34030045 67.38223726 -87.34300633 69.17488886 -86.34179688 70.96533203 C-85.79072266 71.95774902 -85.23964844 72.95016602 -84.671875 73.97265625 C-84.16237305 74.884104 -83.65287109 75.79555176 -83.12792969 76.73461914 C-82 79 -82 79 -82 81 C-79.41521338 78.67614565 -77.96782672 76.32792432 -76.3984375 73.23828125 C-75.9132666 72.29299561 -75.4280957 71.34770996 -74.92822266 70.3737793 C-74.41565918 69.36355713 -73.9030957 68.35333496 -73.375 67.3125 C-69.89388264 60.54296439 -66.40635559 53.7947797 -62.625 47.1875 C-57.93389117 38.98382596 -53.48801181 30.65074355 -49.04736328 22.30932617 C-36.3661876 -1.4051582 -36.3661876 -1.4051582 -25 -6 C-15.38209436 -8.62306517 -7.45479175 -6.31812053 0 0 Z " fill="#FBB613" transform="translate(331,28)"/>
<path d="M0 0 C1.29525337 0.01287992 1.29525337 0.01287992 2.61667347 0.02602005 C4.52254701 0.04604996 6.42837624 0.07068112 8.33414078 0.09925842 C11.50060443 0.14507903 14.66690559 0.17508517 17.83358765 0.20153809 C31.9869474 0.3249252 46.13960181 0.51826551 60.29205608 0.71860886 C67.42492278 0.81922771 74.55773133 0.9123403 81.69091797 0.98730469 C87.97414087 1.05334105 94.25701589 1.13301977 100.53985339 1.2291348 C103.84693553 1.27929223 107.15375382 1.32093874 110.46109581 1.35024261 C114.13847381 1.38406396 117.81473461 1.44212607 121.49169922 1.50585938 C122.56871094 1.51017975 123.64572266 1.51450012 124.75537109 1.51895142 C133.85674734 1.72014647 141.15241792 4.19008915 147.89135742 10.45996094 C153.17825607 16.37854099 154.68494199 23.32224021 154.39526367 31.14355469 C152.93036596 38.80424927 149.53863029 44.83471079 143.14526367 49.39355469 C136.51468402 53.89460511 129.35152866 54.44432787 121.5925293 54.27880859 C120.33256638 54.26461632 120.33256638 54.26461632 119.04714966 54.25013733 C116.29836974 54.21672825 113.5500665 54.16854144 110.80151367 54.12011719 C108.88481862 54.09392228 106.96811064 54.06865754 105.0513916 54.04428101 C100.02729841 53.97790218 95.00347972 53.89895135 89.97961426 53.81732178 C84.84483304 53.73613505 79.70989171 53.66692127 74.57495117 53.59667969 C64.51486349 53.45731151 54.45502522 53.30465237 44.39526367 53.14355469 C46.14338117 56.01113272 47.89275137 58.87794459 49.64233398 61.74462891 C50.13307404 62.54966354 50.62381409 63.35469818 51.12942505 64.18412781 C55.04842855 70.60329792 59.06450218 76.95083983 63.14526367 83.26855469 C68.63106518 91.81372004 74.10444081 100.36632664 79.52026367 108.95605469 C80.12322266 109.90303223 80.72618164 110.85000977 81.34741211 111.82568359 C94.43188101 132.65454543 94.43188101 132.65454543 92.39526367 144.14355469 C89.85644164 152.24691817 84.83918889 158.23458701 77.34838867 162.23730469 C70.23816868 165.21367585 64.1469461 164.29801634 56.92260742 162.19042969 C50.93999712 159.71231599 47.34337538 156.30402547 43.95776367 150.89355469 C43.54510254 150.25514648 43.13244141 149.61673828 42.70727539 148.95898438 C41.25388694 146.69698727 39.82318144 144.42171409 38.39526367 142.14355469 C37.82565918 141.23863281 37.25605469 140.33371094 36.66918945 139.40136719 C33.47700597 134.32517454 30.30001237 129.23973081 27.13354492 124.14746094 C23.84623757 118.8617394 20.53549191 113.59140387 17.20776367 108.33105469 C16.72452637 107.56696289 16.24128906 106.80287109 15.7434082 106.015625 C14.77807685 104.48964269 13.81258332 102.96376296 12.84692383 101.43798828 C10.36052834 97.50809511 7.87813593 93.57567437 5.39526367 89.64355469 C4.39528203 88.06020976 3.39528205 86.47687641 2.39526367 84.89355469 C-0.60473633 80.14355469 -0.60473633 80.14355469 -3.60473633 75.39355469 C-4.34820312 74.21647949 -4.34820312 74.21647949 -5.10668945 73.015625 C-6.10037525 71.44218119 -7.09386684 69.86861471 -8.0871582 68.29492188 C-10.68213511 64.18421929 -13.28108098 60.07609911 -15.88598633 55.97167969 C-16.69422852 54.69647461 -16.69422852 54.69647461 -17.51879883 53.39550781 C-18.54358202 51.77882399 -19.56954191 50.16288518 -20.59692383 48.54785156 C-26.60714066 39.05934626 -31.10811467 31.77262837 -29.60473633 20.14355469 C-27.16860056 12.58409523 -23.79807289 7.32435372 -16.94848633 3.22949219 C-11.22222774 0.57632571 -6.26840288 -0.12334022 0 0 Z " fill="#EF117A" transform="translate(330.604736328125,267.8564453125)"/>
<path d="M0 0 C2.37358772 -0.03393338 4.74702285 -0.05792463 7.12076187 -0.078022 C8.37362488 -0.09179382 9.62648788 -0.10556564 10.91731644 -0.11975479 C18.35875573 0.23944475 24.13277556 2.39111151 29.24502945 7.85337448 C34.71731481 15.03164808 35.59182517 20.30610274 35.83877945 29.24790573 C34.53294634 37.58977383 29.32415155 44.79897234 24.80752945 51.79087448 C24.29383804 52.59524948 23.78014664 53.39962448 23.25088882 54.22837448 C22.15339485 55.94642027 21.05390163 57.66319036 19.95254898 59.37876511 C17.0368911 63.92442332 14.14285465 68.48383644 11.24502945 73.04087448 C10.05624974 74.90807623 8.86744781 76.77526382 7.6786232 78.64243698 C0.66442277 89.66559046 -6.3080306 100.71424321 -13.22420883 111.79917526 C-18.89923986 120.89405589 -24.58559771 129.98168559 -30.31747055 139.04087448 C-30.87676254 139.93008591 -31.43605453 140.81929733 -32.01229477 141.73545456 C-43.63105801 160.04523999 -43.63105801 160.04523999 -54.62997055 163.41587448 C-62.22768092 164.94731121 -69.14227255 163.67615593 -75.71590805 159.61118698 C-82.15255051 154.65423244 -85.43939127 147.97158352 -86.75497055 140.04087448 C-87.63983112 128.09525679 -78.53421011 116.7755542 -72.31747055 107.29087448 C-70.89710915 105.09756992 -69.47786652 102.90354051 -68.05965805 100.70884323 C-67.3439061 99.603311 -66.62815414 98.49777878 -65.89071274 97.35874557 C-62.5285775 92.1356754 -59.2304662 86.87333859 -55.94247055 81.60337448 C-55.3288768 80.62014206 -54.71528305 79.63690964 -54.08309555 78.62388229 C-48.58540965 69.79632119 -43.15738625 60.92695515 -37.75497055 52.04087448 C-38.69509995 52.10943649 -39.63522934 52.1779985 -40.6038475 52.24863815 C-56.69685852 53.30543178 -72.81725572 53.29773847 -88.93783188 53.3360405 C-93.13488517 53.34722963 -97.33142649 53.38186067 -101.52829647 53.4212122 C-104.79437333 53.44738832 -108.06032551 53.45573162 -111.32649803 53.45932198 C-112.87455775 53.46416041 -114.42261295 53.47569511 -115.9705677 53.49435997 C-125.54984296 53.60299496 -132.69215601 53.46079194 -140.21590805 46.89243698 C-141.16336899 45.79028854 -141.16336899 45.79028854 -142.12997055 44.66587448 C-142.77707993 43.93626511 -143.4241893 43.20665573 -144.09090805 42.45493698 C-148.56251114 35.96796349 -148.60323847 28.63956921 -147.75497055 21.04087448 C-145.26927457 12.58950814 -140.25465313 8.25572025 -132.8838768 3.94712448 C-126.72476309 1.32526323 -119.71598934 1.83462139 -113.14437485 1.74375534 C-111.98087006 1.72410217 -110.81736526 1.70444901 -109.61860275 1.68420029 C-105.77218846 1.6203519 -101.92570717 1.56295809 -98.0791893 1.50571823 C-95.39321385 1.46266113 -92.70724558 1.41927559 -90.0212822 1.37548447 C-84.38494849 1.28429459 -78.74857063 1.1964703 -73.11214828 1.11094284 C-65.92829771 1.00191993 -58.74454328 0.88754592 -51.56080532 0.77136517 C-45.33608386 0.67072671 -39.111325 0.57247571 -32.88655877 0.47465062 C-30.91200013 0.44353826 -28.9374463 0.41212125 -26.96289253 0.38070107 C-19.89340628 0.26909031 -12.82391928 0.16511672 -5.75408173 0.07833099 C-3.83602635 0.05437601 -1.91799387 0.02845657 0 0 Z " fill="#EF117A" transform="translate(163.7549705505371,267.9591255187988)"/>
<path d="M0 0 C7.27409633 5.26721571 11.81615436 14.37186182 16.42431641 21.89770508 C17.74771803 24.03753357 19.07195505 26.1768456 20.39697266 28.31567383 C21.05971191 29.38736816 21.72245117 30.4590625 22.40527344 31.56323242 C25.35240293 36.30349935 28.35503184 41.00763682 31.36181641 45.71020508 C36.2392471 53.34974524 41.06687636 61.01863136 45.86181641 68.71020508 C52.42034609 79.22961578 59.05529313 89.6986144 65.72631836 100.14697266 C68.06626368 103.81424926 70.40093795 107.48487328 72.7355957 111.15551758 C73.86513002 112.92994291 74.99784792 114.7023441 76.13305664 116.47314453 C81.48930153 124.89907009 83.50028982 131.77818412 81.36181641 141.71020508 C79.29580356 148.26241724 75.10285028 153.00479923 69.36181641 156.71020508 C62.12503182 160.30358544 55.30811677 160.08772718 47.36181641 159.96020508 C45.87289282 159.94735301 44.38395944 159.93560073 42.89501953 159.92480469 C38.44516792 159.88649347 33.99589205 159.8238166 29.54638672 159.75701904 C26.08125893 159.70608081 22.61608609 159.66019801 19.15087891 159.61499023 C4.13420175 159.41681466 -10.88153663 159.18313212 -25.89710999 158.91424561 C-33.21793616 158.78360016 -40.53871874 158.66654087 -47.8600769 158.56987 C-51.85219076 158.51503273 -55.84405455 158.44886094 -59.8359375 158.37936401 C-61.63778586 158.35032201 -63.43971827 158.32603658 -65.24169922 158.30691528 C-86.90024352 158.06989628 -86.90024352 158.06989628 -95.13427734 150.38989258 C-100.8860332 143.96585357 -102.07001836 137.26348397 -101.97802734 128.88208008 C-101.17895457 121.42406757 -97.42317082 115.73028246 -91.77490234 110.96411133 C-85.37791243 107.21011908 -79.73037864 106.27326137 -72.46826172 106.36962891 C-71.58927216 106.36919083 -70.71028259 106.36875275 -69.80465698 106.36830139 C-66.92601589 106.370376 -64.04797178 106.39364385 -61.16943359 106.41723633 C-59.16304848 106.42283701 -57.15665925 106.42710488 -55.15026855 106.43009949 C-49.88949095 106.44151104 -44.62896489 106.47094634 -39.36828613 106.50421143 C-33.99214073 106.53499205 -28.61595437 106.54862187 -23.23974609 106.5637207 C-12.70578188 106.59581967 -2.17200372 106.64697119 8.36181641 106.71020508 C7.96979034 106.09449142 7.57776428 105.47877777 7.17385864 104.84440613 C5.36395984 102.00159436 3.55429324 99.15863486 1.74462891 96.31567383 C1.12821533 95.34754761 0.51180176 94.37942139 -0.12329102 93.38195801 C-4.99857627 85.72240024 -9.85460806 78.050889 -14.69677734 70.37036133 C-16.70419245 67.18708823 -18.71783553 64.00786907 -20.73583984 60.83129883 C-25.4973211 53.33015063 -30.2330767 45.81627224 -34.82568359 38.21020508 C-35.20039795 37.59306641 -35.5751123 36.97592773 -35.96118164 36.34008789 C-40.05533666 29.50520153 -40.4177046 23.57709519 -39.63818359 15.71020508 C-37.04701696 7.1814324 -31.95538095 2.30052349 -24.51318359 -2.16479492 C-16.54331931 -5.13782295 -7.24810358 -4.33087872 0 0 Z " fill="#63C1AB" transform="translate(117.63818359375,74.289794921875)"/>
<path d="M0 0 C7.07967267 5.24209163 10.61141258 13.57223246 14.59277344 21.18994141 C16.58348631 24.97780649 18.6331342 28.73279291 20.67919922 32.4909668 C22.33985297 35.54309287 23.99327185 38.59903222 25.64453125 41.65625 C28.94834526 47.77271869 32.25612305 53.88703019 35.56640625 60 C36.10571777 60.99612305 36.6450293 61.99224609 37.20068359 63.01855469 C41.25013642 70.4939055 45.32213214 77.95677225 49.39892578 85.41723633 C54.03484492 93.91132307 58.62074539 102.43215106 63.19702148 110.95849609 C63.75075439 111.9892627 64.3044873 113.0200293 64.875 114.08203125 C65.40335449 115.0663916 65.93170898 116.05075195 66.47607422 117.06494141 C68.28218621 120.38682523 70.14811835 123.67222913 72.04321289 126.9440918 C74.8914402 132.66877535 74.86335262 139.39061802 73.35546875 145.50390625 C70.73235934 152.84637062 66.62423813 157.46144541 60.19140625 161.75 C51.75989236 164.72582843 43.18578328 164.50758642 34.94921875 161 C22.3889762 153.33270334 15.8311159 133.01829942 9.1237793 120.3449707 C3.4036519 109.54726651 -2.55434226 98.89664034 -8.62255859 88.29052734 C-10.77688114 84.50189115 -12.88926087 80.6902008 -14.99609375 76.875 C-15.37717285 77.5870459 -15.75825195 78.2990918 -16.15087891 79.03271484 C-19.71464923 85.69069389 -23.28069138 92.34744805 -26.84915161 99.00291443 C-29.11992816 103.23860028 -31.38683785 107.4763356 -33.65234375 111.71484375 C-36.51160342 117.05817517 -39.39005082 122.39076684 -42.28320312 127.71582031 C-43.44059419 129.85046119 -44.592811 131.98791442 -45.74023438 134.12792969 C-47.43457241 137.28175642 -49.15009731 140.42315814 -50.87109375 143.5625 C-51.61963623 144.9697937 -51.61963623 144.9697937 -52.38330078 146.40551758 C-56.19824012 153.28461721 -60.59611032 158.39787092 -67.5078125 162.2890625 C-74.45801609 163.92568815 -84.0456116 164.28742688 -90.62109375 161.3125 C-95.8105902 158.05904086 -100.40830811 152.85086527 -102.5078125 147.0546875 C-105.09643559 135.49907401 -101.95695955 127.11218608 -96.34423828 117.25976562 C-94.85487668 114.62519769 -93.42071423 111.96490529 -91.9921875 109.296875 C-88.69149464 103.13900887 -85.3466475 97.00584246 -81.99609375 90.875 C-80.98028926 89.01311875 -79.96465823 87.15114285 -78.94921875 85.2890625 C-77.47142561 82.5794909 -75.99339247 79.87005233 -74.5144043 77.16113281 C-69.20578314 67.43575972 -63.93225348 57.69145536 -58.65917969 47.94677734 C-56.96305718 44.81398032 -55.26500297 41.68223738 -53.56640625 38.55078125 C-53.00453613 37.5141333 -52.44266602 36.47748535 -51.86376953 35.40942383 C-50.75472985 33.36522615 -49.64376579 31.32207119 -48.53076172 29.2800293 C-46.18893168 24.97474194 -43.86929036 20.66819979 -41.68359375 16.28125 C-37.23929244 7.40214826 -33.08707655 0.57318988 -23.49609375 -3.0625 C-15.04872103 -5.39131337 -7.64154037 -4.30677814 0 0 Z " fill="#63C1AB" transform="translate(264.99609375,317.125)"/>
<path d="M0 0 C6.8174645 3.99644471 10.87397925 9.00050439 13.02734375 16.62109375 C15.3939593 28.21946585 10.61639943 36.60922811 4.33544922 46.14257812 C3.50230102 47.39812547 2.66862001 48.65331937 1.83447266 49.90820312 C-0.60171998 53.61285611 -2.95200034 57.37185146 -5.3125 61.125 C-6.3397155 62.75398713 -7.36706052 64.38289259 -8.39453125 66.01171875 C-8.90838379 66.82688965 -9.42223633 67.64206055 -9.95166016 68.48193359 C-12.46542699 72.46860449 -14.98286106 76.4529577 -17.5 80.4375 C-18.48439342 81.99608212 -19.46876833 83.55467593 -20.453125 85.11328125 C-25.46875 93.0546875 -30.484375 100.99609375 -35.5 108.9375 C-34.59088867 108.90720703 -33.68177734 108.87691406 -32.74511719 108.84570312 C-20.66507972 108.45727748 -8.58408119 108.16697539 3.5 107.9375 C4.60418274 107.91627075 5.70836548 107.8950415 6.8460083 107.87316895 C13.84647868 107.74387757 20.8463279 107.65072137 27.84777832 107.59545898 C30.14613865 107.57359529 32.4444331 107.5429221 34.74255371 107.50317383 C38.00184032 107.4489727 41.25985409 107.4277226 44.51953125 107.4140625 C45.48170059 107.39143341 46.44386993 107.36880432 47.43519592 107.3454895 C55.43082975 107.37002205 61.80933095 109.81462619 67.9375 115 C73.55145898 121.96130913 76.01701992 128.17028368 75.32421875 137.23828125 C74.03963375 144.75115719 70.02142568 150.24636345 64 154.8125 C57.94580139 159.05637452 51.56919401 159.26041926 44.44433594 159.34814453 C43.44468811 159.36794373 42.44504028 159.38774292 41.4151001 159.40814209 C38.10495399 159.47133579 34.79475439 159.52097535 31.484375 159.5703125 C29.15300197 159.61155673 26.82164211 159.65355199 24.49029541 159.69625854 C19.58442895 159.78420666 14.67851296 159.86597827 9.77246094 159.94287109 C3.58897564 160.03984494 -2.59426416 160.14731651 -8.77750397 160.2587471 C-20.5336101 160.47040096 -32.28976036 160.65757833 -44.04679108 160.80989456 C-49.93271874 160.88629445 -55.81797962 160.97693092 -61.7033577 161.0877018 C-64.87388567 161.14337393 -68.04442421 161.18219504 -71.21526337 161.21505356 C-72.61334662 161.23274644 -74.01136527 161.2572537 -75.40918732 161.2895546 C-85.03983157 161.506651 -92.40748011 160.33251326 -100.5 154.9375 C-100.5 154.2775 -100.5 153.6175 -100.5 152.9375 C-101.16 152.9375 -101.82 152.9375 -102.5 152.9375 C-103.31567174 151.50179734 -104.12742093 150.06386566 -104.9375 148.625 C-105.61619141 147.42423828 -105.61619141 147.42423828 -106.30859375 146.19921875 C-108.2426912 142.52760424 -108.73592778 139.4776306 -108.875 135.375 C-108.92398437 134.40433594 -108.97296875 133.43367187 -109.0234375 132.43359375 C-107.78813026 124.18284762 -102.39691262 116.90018246 -97.9375 110 C-96.86968863 108.3281908 -95.8019832 106.65631395 -94.734375 104.984375 C-94.19490234 104.14326172 -93.65542969 103.30214844 -93.09960938 102.43554688 C-90.6121297 98.55094796 -88.14944721 94.65081212 -85.6875 90.75 C-85.19934814 89.97769043 -84.71119629 89.20538086 -84.20825195 88.40966797 C-80.1576214 81.99568063 -76.14007831 75.56128283 -72.125 69.125 C-66.65281636 60.35524186 -61.13616265 51.6153511 -55.57446289 42.90209961 C-52.23212105 37.66520899 -48.91150643 32.41559621 -45.61083984 27.15234375 C-22.13913464 -10.21289367 -22.13913464 -10.21289367 0 0 Z " fill="#6357A2" transform="translate(409.5,73.0625)"/>
<path d="M0 0 C6.8174645 3.99644471 10.87397925 9.00050439 13.02734375 16.62109375 C15.3939593 28.21946585 10.61639943 36.60922811 4.33544922 46.14257812 C3.50230102 47.39812547 2.66862001 48.65331937 1.83447266 49.90820312 C-0.60171998 53.61285611 -2.95200034 57.37185146 -5.3125 61.125 C-6.3397155 62.75398713 -7.36706052 64.38289259 -8.39453125 66.01171875 C-8.90838379 66.82688965 -9.42223633 67.64206055 -9.95166016 68.48193359 C-11.47064931 70.89095172 -12.99088902 73.29917474 -14.51171875 75.70703125 C-15.2528894 76.88060181 -15.2528894 76.88060181 -16.0090332 78.07788086 C-16.99788886 79.64285384 -17.98730369 81.20747365 -18.97729492 82.77172852 C-21.61730025 86.94525677 -24.2432817 91.12687202 -26.8515625 95.3203125 C-27.39941406 96.19751953 -27.94726562 97.07472656 -28.51171875 97.97851562 C-29.56780043 99.67003628 -30.62003989 101.36396332 -31.66796875 103.06054688 C-32.14105469 103.81658203 -32.61414063 104.57261719 -33.1015625 105.3515625 C-33.51744629 106.0213916 -33.93333008 106.6912207 -34.36181641 107.38134766 C-35.5 108.9375 -35.5 108.9375 -37.5 109.9375 C-38.99420262 110.04050919 -40.49277628 110.08336702 -41.99047852 110.09521484 C-43.38817223 110.11060806 -43.38817223 110.11060806 -44.81410217 110.12631226 C-45.82548752 110.13361359 -46.83687286 110.14091492 -47.87890625 110.1484375 C-50.01888762 110.17652448 -52.15886146 110.20518904 -54.29882812 110.234375 C-57.67358035 110.27550365 -61.04819503 110.31238776 -64.4230957 110.33886719 C-67.67949559 110.36663624 -70.93525621 110.41252857 -74.19140625 110.4609375 C-75.18862198 110.46419037 -76.18583771 110.46744324 -77.21327209 110.47079468 C-82.76507186 110.56721723 -87.38532716 111.23233179 -92.58091736 113.23086548 C-95.16925375 114.1839291 -97.77222211 114.58778489 -100.5 114.9375 C-95.69504679 106.37529015 -90.46846132 98.109238 -85.17919922 89.84130859 C-80.74139707 82.90078569 -76.3561868 75.92950575 -72 68.9375 C-66.57079587 60.2289863 -61.09552512 51.5516154 -55.57397461 42.90136719 C-52.23181955 37.66470561 -48.91135052 32.41534759 -45.61083984 27.15234375 C-22.13913464 -10.21289367 -22.13913464 -10.21289367 0 0 Z " fill="#63C1AB" transform="translate(409.5,73.0625)"/>
<path d="M0 0 C10.87362392 6.6488401 16.21045833 19.35766996 21.89831543 30.26730347 C23.87785591 34.06370594 25.8735954 37.85158836 27.8671875 41.640625 C28.45687317 42.76294777 28.45687317 42.76294777 29.05847168 43.90794373 C33.2404618 51.85907219 37.53636422 59.74582271 41.859375 67.62109375 C42.27123047 68.37245605 42.68308594 69.12381836 43.10742188 69.89794922 C44.09719955 71.69473726 45.09449367 73.48738886 46.09570312 75.27783203 C46.64677734 76.27024902 47.19785156 77.26266602 47.765625 78.28515625 C48.27512695 79.196604 48.78462891 80.10805176 49.30957031 81.04711914 C50.4375 83.3125 50.4375 83.3125 50.4375 85.3125 C51.0975 85.6425 51.7575 85.9725 52.4375 86.3125 C50.47396162 89.99797025 48.50754513 93.68188867 46.53939819 97.36489868 C45.50097427 99.31067443 44.46584306 101.25817723 43.4309082 103.20581055 C37.62103947 114.11053871 37.62103947 114.11053871 34.5078125 119.20703125 C29.21343494 127.88075455 26.89169623 135.11506213 26.4375 145.3125 C23.55439137 142.6308413 21.61643305 140.17349584 19.84375 136.6640625 C19.14390991 135.29713257 19.14390991 135.29713257 18.42993164 133.90258789 C17.9374292 132.92410889 17.44492676 131.94562988 16.9375 130.9375 C15.8650265 128.84415703 14.79076295 126.75173032 13.71484375 124.66015625 C13.16940918 123.59812988 12.62397461 122.53610352 12.06201172 121.44189453 C9.60862229 116.71578306 7.06228336 112.04274529 4.5 107.375 C4.00822266 106.47797363 3.51644531 105.58094727 3.00976562 104.65673828 C2.00168756 102.81807449 0.99338493 100.9795338 -0.01513672 99.14111328 C-2.71416834 94.20722556 -5.38716465 89.25926391 -8.0625 84.3125 C-12.30511913 76.47514939 -16.55127578 68.63975352 -20.8125 60.8125 C-21.30411621 59.90814209 -21.79573242 59.00378418 -22.30224609 58.07202148 C-24.57642414 53.90091498 -26.87280605 49.74678231 -29.2421875 45.62890625 C-29.65694336 44.90574219 -30.07169922 44.18257812 -30.49902344 43.4375 C-31.2583864 42.11969016 -32.02405955 40.80548323 -32.79785156 39.49609375 C-36.33630167 33.3587247 -38.27211168 27.4086168 -37.5625 20.3125 C-34.9665242 11.02586492 -31.75476734 5.35617846 -23.46484375 0.328125 C-16.83854704 -3.20952827 -6.7653721 -3.21419977 0 0 Z " fill="#EE127A" transform="translate(198.5625,23.6875)"/>
<path d="M0 0 C7.27409633 5.26721571 11.81615436 14.37186182 16.42431641 21.89770508 C17.74771803 24.03753357 19.07195505 26.1768456 20.39697266 28.31567383 C21.05971191 29.38736816 21.72245117 30.4590625 22.40527344 31.56323242 C25.35240293 36.30349935 28.35503184 41.00763682 31.36181641 45.71020508 C36.87511906 54.34571415 42.31783349 63.02340244 47.73657227 71.71850586 C52.64646826 79.58843178 57.61352021 87.42066815 62.61962891 95.22973633 C64.21019965 97.71715901 65.78865484 100.2117407 67.36181641 102.71020508 C68.23749268 104.08740723 68.23749268 104.08740723 69.13085938 105.49243164 C69.97028076 106.84159668 69.97028076 106.84159668 70.82666016 108.21801758 C71.33704834 109.03157715 71.84743652 109.84513672 72.37329102 110.68334961 C72.69950439 111.35221191 73.02571777 112.02107422 73.36181641 112.71020508 C73.03181641 113.37020508 72.70181641 114.03020508 72.36181641 114.71020508 C70.66910807 113.70109049 68.97639974 112.69197591 67.28369141 111.68286133 C63.64544785 109.84155514 60.28618511 109.58600568 56.24536133 109.57177734 C55.22717819 109.56408829 54.20899506 109.55639923 53.15995789 109.54847717 C52.06512589 109.54126144 50.97029388 109.53404572 49.84228516 109.52661133 C47.5173668 109.48705167 45.19249546 109.44464477 42.86767578 109.3996582 C39.20670201 109.32918403 35.54864406 109.27270351 31.88696289 109.26416016 C28.34888165 109.25151648 24.81672559 109.17597914 21.27978516 109.08911133 C20.19102585 109.10011368 19.10226654 109.11111603 17.98051453 109.12245178 C13.42612332 108.96264428 10.516921 108.84414395 7.17671204 105.56513977 C5.37188904 103.01635813 3.84639673 100.45567369 2.36181641 97.71020508 C1.33532449 96.07063401 0.30136457 94.43568766 -0.74365234 92.80786133 C-1.77371274 91.1311418 -2.80097813 89.45270255 -3.82568359 87.77270508 C-4.96299241 85.92200692 -6.10102886 84.07175573 -7.23974609 82.22192383 C-7.80725586 81.29943848 -8.37476562 80.37695312 -8.95947266 79.42651367 C-11.51254955 75.2954006 -14.10337655 71.18860732 -16.70068359 67.08520508 C-17.18633789 66.31644043 -17.67199219 65.54767578 -18.17236328 64.75561523 C-20.72880153 60.71258019 -23.29793024 56.6780889 -25.88037109 52.65161133 C-26.41525146 51.81388184 -26.95013184 50.97615234 -27.5012207 50.11303711 C-28.51095967 48.53196344 -29.52446499 46.95328514 -30.54272461 45.37768555 C-36.77667191 35.598052 -41.43853425 27.63935779 -39.63818359 15.71020508 C-36.97399412 7.17775684 -31.99202646 2.3225108 -24.51318359 -2.16479492 C-16.54331931 -5.13782295 -7.24810358 -4.33087872 0 0 Z " fill="#6357A2" transform="translate(117.63818359375,74.289794921875)"/>
<path d="M0 0 C0 0.66 0 1.32 0 2 C-1.72265625 3.19140625 -1.72265625 3.19140625 -4.0625 4.5625 C-14.25278444 11.23452138 -19.58513941 22.67703288 -25.71923828 32.88378906 C-28.39683734 37.30800345 -31.17970939 41.66550756 -34 46 C-34.51804199 47.02101807 -35.03608398 48.04203613 -35.56982422 49.09399414 C-38 52 -38 52 -41.67260742 52.79370117 C-43.25368029 52.84549859 -44.83606525 52.86293243 -46.41796875 52.85546875 C-47.31597702 52.8743364 -48.21398529 52.89320404 -49.13920593 52.91264343 C-52.42632937 52.97169557 -55.71239153 52.98392272 -59 53 C-61.07209109 53.02639256 -63.1440675 53.05793155 -65.21608162 53.08976936 C-73.92200938 53.22242111 -82.62690203 53.27404679 -91.33374023 53.29516602 C-95.51504179 53.30637401 -99.69583212 53.34103667 -103.87695026 53.38033772 C-107.13444474 53.40650747 -110.39181419 53.41485635 -113.64940453 53.41844749 C-115.19188221 53.42328407 -116.73435543 53.43481332 -118.27672768 53.45348549 C-127.83543076 53.562366 -134.95360551 53.40558249 -142.4609375 46.8515625 C-143.40839844 45.74941406 -143.40839844 45.74941406 -144.375 44.625 C-145.02210938 43.89539063 -145.66921875 43.16578125 -146.3359375 42.4140625 C-150.80754059 35.92708901 -150.84826792 28.59869473 -150 21 C-147.51430402 12.54863366 -142.49968258 8.21484576 -135.12890625 3.90625 C-128.91547629 1.26126697 -121.82770846 1.7929819 -115.19897461 1.70288086 C-114.01619431 1.68322769 -112.833414 1.66357452 -111.61479187 1.64332581 C-108.38354924 1.59052841 -105.15227643 1.54172805 -101.92094493 1.49474788 C-98.53331027 1.4445625 -95.14575834 1.38930125 -91.75819397 1.33460999 C-86.07150484 1.24349247 -80.38477372 1.15560733 -74.69799805 1.07006836 C-66.68518524 0.94954086 -58.6724668 0.82348014 -50.6597594 0.69616115 C-39.33043945 0.51639986 -28.00107565 0.33944507 -16.67163086 0.16772461 C-15.55824341 0.15059418 -14.44485596 0.13346375 -13.29772949 0.11581421 C-12.27300034 0.10043106 -11.24827118 0.08504791 -10.19248962 0.06919861 C-9.30522155 0.05574874 -8.41795347 0.04229887 -7.50379848 0.02844143 C-5.00229334 0.00002605 -2.50164296 -0.00497336 0 0 Z " fill="#FBB713" transform="translate(166,268)"/>
<path d="M0 0 C16.66440616 0.16803855 33.32838653 0.35839148 49.99222469 0.57505417 C57.7301696 0.67514666 65.46807384 0.76803314 73.20629883 0.84375 C79.95374362 0.9097908 86.70086513 0.98956193 93.44795233 1.08558011 C97.01800468 1.13591259 100.58784534 1.17953124 104.15815544 1.20668793 C108.15139814 1.23731956 112.14362225 1.2986129 116.13647461 1.36230469 C117.89730629 1.36878525 117.89730629 1.36878525 119.69371033 1.37539673 C129.11030765 1.56691108 136.50797077 3.81469554 143.49609375 10.31640625 C148.7829924 16.2349863 150.28967831 23.17868552 150 31 C148.53510229 38.66069459 145.14336662 44.69115611 138.75 49.25 C130.21414798 55.04441049 120.67201124 54.21771304 110.79296875 54.01171875 C109.30293548 53.98800998 107.81288859 53.96514321 106.3228302 53.94306946 C103.20180592 53.89468754 100.08101087 53.8394115 96.96020508 53.77856445 C92.24252435 53.68667568 87.52465591 53.61325301 82.80664062 53.54101562 C76.13503566 53.43788368 69.46558074 53.28934073 62.79548454 53.11491203 C58.79632594 53.0176836 54.81044567 53.01230347 50.81103516 53.08447266 C39.51824375 53.17258244 39.51824375 53.17258244 35.58081055 50.1315918 C33.6580583 47.52018591 32.35925956 44.94115646 31 42 C29.78235794 40.02794927 28.54192535 38.06982234 27.28125 36.125 C25.38374208 33.06070149 23.49465198 29.99131085 21.60546875 26.921875 C14.41445338 13.90465155 14.41445338 13.90465155 3.5625 4.375 C2.69753906 3.90835937 1.83257812 3.44171875 0.94140625 2.9609375 C0.30074219 2.64382813 -0.33992188 2.32671875 -1 2 C-0.67 1.34 -0.34 0.68 0 0 Z " fill="#FBB612" transform="translate(335,268)"/>
<path d="M0 0 C0.66 0 1.32 0 2 0 C2.02578125 0.68964844 2.0515625 1.37929688 2.078125 2.08984375 C2.13484375 3.02957031 2.1915625 3.96929687 2.25 4.9375 C2.29640625 5.85402344 2.3428125 6.77054687 2.390625 7.71484375 C4.1375903 17.13277846 9.92598438 25.65649999 14.4375 34 C15.09989263 35.23161854 15.76200361 36.46338859 16.42382812 37.6953125 C16.74751373 38.29649902 17.07119934 38.89768555 17.4046936 39.51708984 C18.35162865 41.2763371 19.29668386 43.0365958 20.24169922 44.796875 C21.33321478 46.78530657 22.45469709 48.7579654 23.62158203 50.703125 C24.08806152 51.48171875 24.55454102 52.2603125 25.03515625 53.0625 C25.44258057 53.71347656 25.85000488 54.36445313 26.26977539 55.03515625 C27.2780456 57.74814811 26.84073573 59.24980109 26 62 C25.17395935 63.78458377 24.27751462 65.53743815 23.33203125 67.26171875 C22.77572021 68.28483154 22.21940918 69.30794434 21.64624023 70.36206055 C20.73853882 72.00815308 20.73853882 72.00815308 19.8125 73.6875 C18.85602557 75.44089294 17.8995621 77.19429198 16.94380188 78.94807434 C15.95229105 80.76585189 14.95808091 82.58213718 13.96386719 84.3984375 C11.50343169 88.901219 9.08729613 93.42750657 6.66918945 97.953125 C4.37059408 102.24634246 2.05213978 106.52861469 -0.27099609 110.80859375 C-1.43496198 112.95704929 -2.59405522 115.10815104 -3.74853516 117.26171875 C-5.44135291 120.41264981 -7.15540725 123.55111839 -8.875 126.6875 C-9.62342163 128.094552 -9.62342163 128.094552 -10.38696289 129.5300293 C-14.20195258 136.40934355 -18.59982178 141.52276125 -25.51171875 145.4140625 C-32.46192234 147.05068815 -42.04951785 147.41242688 -48.625 144.4375 C-53.81449645 141.18404086 -58.41221436 135.97586527 -60.51171875 130.1796875 C-63.10034184 118.62407401 -59.9608658 110.23718608 -54.34814453 100.38476562 C-52.85878293 97.75019769 -51.42462048 95.08990529 -49.99609375 92.421875 C-46.69540089 86.26400887 -43.35055375 80.13084246 -40 74 C-38.98419551 72.13811875 -37.96856448 70.27614285 -36.953125 68.4140625 C-35.47533186 65.7044909 -33.99729872 62.99505233 -32.51831055 60.28613281 C-27.21848282 50.57686924 -21.95373445 40.84868477 -16.68945312 31.12011719 C-14.91452351 27.84214024 -13.13720912 24.565465 -11.359375 21.2890625 C-10.76568115 20.1944873 -10.1719873 19.09991211 -9.56030273 17.97216797 C-8.41967744 15.86936413 -7.27858558 13.76681329 -6.13696289 11.66455078 C-5.62383545 10.71821777 -5.11070801 9.77188477 -4.58203125 8.796875 C-4.13061768 7.96510742 -3.6792041 7.13333984 -3.21411133 6.27636719 C-2.10687057 4.20037426 -1.04074484 2.10997003 0 0 Z " fill="#6357A2" transform="translate(223,334)"/>
<path d="M0 0 C0 0.66 0 1.32 0 2 C-1.72265625 3.19140625 -1.72265625 3.19140625 -4.0625 4.5625 C-13.06305261 10.45555233 -17.81130115 19.72315445 -23.18115234 28.79199219 C-23.63184082 29.54899414 -24.0825293 30.30599609 -24.546875 31.0859375 C-24.94745117 31.7670459 -25.34802734 32.4481543 -25.76074219 33.14990234 C-27.00945643 35.01411758 -28.36239141 36.47342578 -30 38 C-30 35.69 -30 33.38 -30 31 C-28.68 31 -27.36 31 -26 31 C-25.81824219 30.34773438 -25.63648438 29.69546875 -25.44921875 29.0234375 C-24.02533404 24.07269989 -22.50592766 19.53453577 -20 15 C-19.34 15 -18.68 15 -18 15 C-17.67 14.01 -17.34 13.02 -17 12 C-15.37667033 10.61423077 -13.71275535 9.27358732 -12 8 C-12.495 5.525 -12.495 5.525 -13 3 C-29.17 3 -45.34 3 -62 3 C-62 2.34 -62 1.68 -62 1 C-54.65448566 0.86909599 -47.30896301 0.73866992 -39.96342945 0.60884857 C-36.55235697 0.54854805 -33.14128754 0.4880849 -29.73022461 0.42724609 C-25.80583542 0.35725895 -21.88143376 0.28798633 -17.95703125 0.21875 C-16.73603226 0.19687622 -15.51503326 0.17500244 -14.2570343 0.15246582 C-13.1162291 0.13244507 -11.97542389 0.11242432 -10.80004883 0.09179688 C-9.79855301 0.07403198 -8.79705719 0.05626709 -7.76521301 0.03796387 C-5.1763627 0.0024213 -2.58905063 -0.00694933 0 0 Z " fill="#F2B236" transform="translate(166,268)"/>
<path d="M0 0 C21.45 0.33 42.9 0.66 65 1 C64.67 1.66 64.34 2.32 64 3 C48.49 3 32.98 3 17 3 C16.67 4.32 16.34 5.64 16 7 C15.01 6.34 14.02 5.68 13 5 C13 6.98 13 8.96 13 11 C14.32 11 15.64 11 17 11 C17.66 14.3 18.32 17.6 19 21 C16.40325268 18.40325268 14.85424046 16.25334285 12.9375 13.1875 C9.20776251 7.72095343 4.86333617 4.90217444 -1 2 C-0.67 1.34 -0.34 0.68 0 0 Z " fill="#EFB532" transform="translate(335,268)"/>
<path d="M0 0 C0.93423645 3.01031744 1.04449911 3.86650268 0 7 C1.32 6.67 2.64 6.34 4 6 C3.7525 6.86625 3.7525 6.86625 3.5 7.75 C2.85537969 10.26664369 2.85537969 10.26664369 3 14 C3 15.32 3 16.64 3 18 C2.34 18 1.68 18 1 18 C1 16.68 1 15.36 1 14 C0.34 14 -0.32 14 -1 14 C-1.66 15.32 -2.32 16.64 -3 18 C-3.66 18 -4.32 18 -5 18 C-5.226875 18.94875 -5.45375 19.8975 -5.6875 20.875 C-7 24 -7 24 -9.625 25.375 C-10.40875 25.58125 -11.1925 25.7875 -12 26 C-11.87625 27.36125 -11.87625 27.36125 -11.75 28.75 C-12 32 -12 32 -13.875 34.375 C-16 36 -16 36 -18 36 C-18 37.32 -18 38.64 -18 40 C-19.485 40.495 -19.485 40.495 -21 41 C-19.68924155 36.73399055 -18.04901165 32.96086983 -15.91796875 29.04296875 C-15.31533203 27.92986328 -14.71269531 26.81675781 -14.09179688 25.66992188 C-13.46337891 24.52072266 -12.83496094 23.37152344 -12.1875 22.1875 C-11.57068359 21.04990234 -10.95386719 19.91230469 -10.31835938 18.74023438 C-6.91540092 12.47314936 -3.47872017 6.22534393 0 0 Z " fill="#FBB619" transform="translate(251,108)"/>
<path d="M0 0 C0 4.63006811 -1.52231026 7.66112981 -4.1340332 11.44555664 C-7.89311657 14.79603703 -10.9388427 14.81860012 -15.75 14.83203125 C-16.65195602 14.85454453 -17.55391205 14.8770578 -18.48320007 14.9002533 C-21.65586019 14.96658669 -24.82668516 14.98623426 -28 15 C-29.22345123 15.01019165 -30.44690247 15.0203833 -31.70742798 15.03088379 C-40.68739 15.10120006 -49.66623673 15.09701962 -58.6463623 15.06866455 C-62.30785528 15.05824441 -65.9693557 15.05382784 -69.63085938 15.04882812 C-76.75392374 15.03825602 -83.87695893 15.02129914 -91 15 C-91 14.67 -91 14.34 -91 14 C-81.12359492 13.05937412 -71.32612071 12.86669192 -61.41796875 12.90234375 C-59.86713202 12.90421422 -58.31629469 12.90563514 -56.76545715 12.90663147 C-52.72962749 12.91040716 -48.69383517 12.92019372 -44.65802002 12.93133545 C-40.52136744 12.94165741 -36.38470869 12.94615194 -32.24804688 12.95117188 C-24.16534766 12.96182164 -16.0826785 12.97883676 -8 13 C-8 12.01 -8 11.02 -8 10 C-7.34 10 -6.68 10 -6 10 C-6 8.68 -6 7.36 -6 6 C-5.34 6 -4.68 6 -4 6 C-3.67 4.35 -3.34 2.7 -3 1 C-2.01 0.67 -1.02 0.34 0 0 Z " fill="#F0B738" transform="translate(135,306)"/>
<path d="M0 0 C0.66 0.33 1.32 0.66 2 1 C-3.00555381 8.64105373 -8.70784698 13.87358059 -17.8515625 15.7890625 C-23.54571922 16.34812516 -28.97916966 15.80982248 -34 13 C-31.2780754 11.6390377 -29.8168043 12.29633752 -26.875 12.9375 C-25.50988281 13.22947266 -25.50988281 13.22947266 -24.1171875 13.52734375 C-23.41851562 13.68332031 -22.71984375 13.83929688 -22 14 C-21.67 13.34 -21.34 12.68 -21 12 C-21.33 11.67 -21.66 11.34 -22 11 C-18.36804504 8.57869669 -16.61650652 8.78977215 -12.3125 8.875 C-11.13300781 8.89304687 -9.95351562 8.91109375 -8.73828125 8.9296875 C-7.38283203 8.96449219 -7.38283203 8.96449219 -6 9 C-5.67 7.68 -5.34 6.36 -5 5 C-4.01 5 -3.02 5 -2 5 C-2 4.01 -2 3.02 -2 2 C-1.34 2 -0.68 2 0 2 C0 1.34 0 0.68 0 0 Z " fill="#E61773" transform="translate(125,416)"/>
<path d="M0 0 C1.98 0.495 1.98 0.495 4 1 C3.67 1.99 3.34 2.98 3 4 C1.68 4 0.36 4 -1 4 C-0.67 2.68 -0.34 1.36 0 0 Z M-15 3 C-12.03 3.495 -12.03 3.495 -9 4 C-8.896875 4.639375 -8.79375 5.27875 -8.6875 5.9375 C-8.3471875 6.9584375 -8.3471875 6.9584375 -8 8 C-7.01 8.33 -6.02 8.66 -5 9 C-5 8.34 -5 7.68 -5 7 C-5.66 6.67 -6.32 6.34 -7 6 C-5.1875 4.9375 -5.1875 4.9375 -3 4 C-2.01 4.33 -1.02 4.66 0 5 C0.33 5 0.66 5 1 5 C2.66666667 5 4.33333333 5 6 5 C0.84739161 9.35989941 -4.33416747 10.55548604 -11 10 C-20.68274637 7.84499852 -20.68274637 7.84499852 -24 4 C-21.36 4.33 -18.72 4.66 -16 5 C-15.67 4.34 -15.34 3.68 -15 3 Z " fill="#E01A73" transform="translate(406,422)"/>
<path d="M0 0 C5 5 5 5 6.5625 6.8125 C8.20321546 8.42458763 8.20321546 8.42458763 12 8 C12 8.99 12 9.98 12 11 C13.14726562 10.98839844 14.29453125 10.97679687 15.4765625 10.96484375 C34.32666814 10.84310745 53.16018527 11.44907681 72 12 C72 12.33 72 12.66 72 13 C65.79679647 13.0251048 59.59362383 13.04304712 53.39038086 13.05493164 C51.28913863 13.05989684 49.18789973 13.06667123 47.08666992 13.07543945 C40.0568504 13.10399547 33.02942672 13.07947408 26 13 C25.06314362 12.99279938 24.12628723 12.98559875 23.16104126 12.97817993 C20.53294835 12.94791091 17.90830884 12.88268655 15.28125 12.8046875 C14.50762619 12.79869034 13.73400238 12.79269318 12.93693542 12.78651428 C9.0392974 12.62907846 7.24159175 12.20484954 4.22924805 9.65063477 C1.99470849 6.63339444 0 3.84922736 0 0 Z " fill="#F2B143" transform="translate(366,308)"/>
<path d="M0 0 C5.00069989 6.13722259 5.49232399 11.66004524 5.38671875 19.41796875 C4.81412358 24.72170382 2.86403733 28.57007257 0 33 C-0.40347656 33.64195312 -0.80695313 34.28390625 -1.22265625 34.9453125 C-2.11434793 36.31960434 -3.05112646 37.66454835 -4 39 C-6 36 -6 36 -6 34 C-5.360625 33.7525 -4.72125 33.505 -4.0625 33.25 C-1.81258459 32.18437567 -1.81258459 32.18437567 -1.25 29.875 C-1.1675 29.25625 -1.085 28.6375 -1 28 C-0.34 28 0.32 28 1 28 C0.979375 26.906875 0.95875 25.81375 0.9375 24.6875 C1 21 1 21 2 18 C1.34 17.67 0.68 17.34 0 17 C0.99 15.68 1.98 14.36 3 13 C2.34 12.34 1.68 11.68 1 11 C1 10.01 1 9.02 1 8 C0.34 8 -0.32 8 -1 8 C-1.93065133 5.39417629 -2.14917407 4.35801776 -1.0625 1.75 C-0.711875 1.1725 -0.36125 0.595 0 0 Z " fill="#E01A73" transform="translate(194,278)"/>
<path d="M0 0 C1.2065625 0.0309375 1.2065625 0.0309375 2.4375 0.0625 C-4.71958414 6.62316047 -14.72172908 5.19523636 -23.6875 4.8203125 C-25.04366591 4.77162116 -26.39986837 4.72393874 -27.75610352 4.67721558 C-31.3008638 4.55241529 -34.84496483 4.41404203 -38.38909912 4.27270508 C-42.01560818 4.13053297 -45.64257932 4.00138383 -49.26953125 3.87109375 C-56.36768902 3.61420896 -63.46523151 3.34296276 -70.5625 3.0625 C-70.5625 2.7325 -70.5625 2.4025 -70.5625 2.0625 C-69.85585709 2.06472061 -69.14921417 2.06694122 -68.42115784 2.06922913 C-61.72811912 2.08935195 -55.03508897 2.1045349 -48.34202671 2.11431217 C-44.90191407 2.11950789 -41.46182665 2.12654466 -38.02172852 2.13793945 C-34.05745761 2.15098677 -30.09319654 2.15575557 -26.12890625 2.16015625 C-24.90667862 2.16531754 -23.68445099 2.17047882 -22.42518616 2.17579651 C-16.05489304 2.17621111 -9.86825354 2.00701609 -3.5625 1.0625 C-2.5625 0.0625 -2.5625 0.0625 0 0 Z " fill="#F6B827" transform="translate(470.5625,316.9375)"/>
<path d="M0 0 C2.97246802 2.54782974 4.41535288 5.45340883 6 9 C6 9.66 6 10.32 6 11 C6.66 11.33 7.32 11.66 8 12 C6.35 14.97 4.7 17.94 3 21 C2.67 21 2.34 21 2 21 C1.855625 19.7625 1.71125 18.525 1.5625 17.25 C1.28891505 14.99788038 0.98297456 12.93870843 0.375 10.75 C-0.09171747 8.57198513 0.32585802 7.0973306 1 5 C0.67 5 0.34 5 0 5 C0 3.35 0 1.7 0 0 Z M-2 13 C-1.01 13 -0.02 13 1 13 C1 14.32 1 15.64 1 17 C-0.32 16.34 -1.64 15.68 -3 15 C-2.67 14.34 -2.34 13.68 -2 13 Z " fill="#EF1177" transform="translate(243,98)"/>
<path d="M0 0 C0.66 0.33 1.32 0.66 2 1 C1.071875 2.299375 1.071875 2.299375 0.125 3.625 C-4.34045977 10.71720081 -4.23817647 16.82260798 -4 25 C-3.34 25.33 -2.68 25.66 -2 26 C-2 26.99 -2 27.98 -2 29 C-1.01 29 -0.02 29 1 29 C1 30.65 1 32.3 1 34 C1.66 34 2.32 34 3 34 C3 34.66 3 35.32 3 36 C4.134375 36.268125 5.26875 36.53625 6.4375 36.8125 C7.613125 37.204375 8.78875 37.59625 10 38 C10.33 38.99 10.66 39.98 11 41 C7.59687262 39.94124926 4.98646769 38.99097846 2 37 C2 36.34 2 35.68 2 35 C1.34 35 0.68 35 0 35 C-0.81567174 33.56429734 -1.62742093 32.12636566 -2.4375 30.6875 C-2.88996094 29.88699219 -3.34242188 29.08648437 -3.80859375 28.26171875 C-6.72198926 22.73104335 -6.68817917 17.112215 -6 11 C-4.60602026 7.16529761 -2.93569769 2.93569769 0 0 Z " fill="#5E5689" transform="translate(307,191)"/>
<path d="M0 0 C17.49 0 34.98 0 53 0 C53 0.33 53 0.66 53 1 C51.68394775 1.01458252 50.36789551 1.02916504 49.01196289 1.04418945 C44.09714523 1.10246299 39.18277185 1.17969323 34.26831055 1.26245117 C32.14729053 1.29556435 30.02618527 1.323638 27.9050293 1.34643555 C24.84387116 1.38023269 21.78348462 1.43256049 18.72265625 1.48828125 C17.3158535 1.49786613 17.3158535 1.49786613 15.88063049 1.50764465 C10.48387845 1.62630468 5.99331361 2.36771392 0.93968201 4.29460144 C-1.65750452 5.23911277 -4.26638063 5.64953598 -7 6 C-4.94766315 3.7522025 -3.99332739 2.9977758 -1 2 C-0.67 1.34 -0.34 0.68 0 0 Z " fill="#7BB0BF" transform="translate(316,182)"/>
<path d="M0 0 C0 0.66 0 1.32 0 2 C-0.61875 2.2475 -1.2375 2.495 -1.875 2.75 C-4.42503925 4.25002309 -4.76222348 5.3697249 -6 8 C-7.33333333 9.33333333 -8.66666667 10.66666667 -10 12 C-10.33 12.99 -10.66 13.98 -11 15 C-11.66 15 -12.32 15 -13 15 C-13 20.28 -13 25.56 -13 31 C-16.03615033 26.4457745 -15.75426544 22.33325737 -15 17 C-12.74025446 10.38159936 -8.40250908 0 0 0 Z " fill="#CD2B74" transform="translate(316,271)"/>
<path d="M0 0 C0.66 0 1.32 0 2 0 C2.02578125 0.68964844 2.0515625 1.37929688 2.078125 2.08984375 C2.43753055 8.04454032 3.35320651 12.69840251 6.0625 18.02734375 C7.00286356 20.0060254 7.54112774 21.86337603 8 24 C7.01 24 6.02 24 5 24 C4.66226563 23.08476562 4.32453125 22.16953125 3.9765625 21.2265625 C3.30753906 19.44378906 3.30753906 19.44378906 2.625 17.625 C2.18414062 16.44164062 1.74328125 15.25828125 1.2890625 14.0390625 C0.2049658 10.95506554 0.2049658 10.95506554 -2 9 C-2.99 9.99 -3.98 10.98 -5 12 C-3.68938409 7.76570244 -2.05643741 3.92592596 0 0 Z " fill="#5D5C97" transform="translate(223,334)"/>
<path d="M0 0 C4.97014984 0.4518318 8.36521444 2.74419682 12 6 C13.55478233 7.93665869 14.74618797 9.8434433 16 12 C15.67 12.66 15.34 13.32 15 14 C13.9790625 12.824375 13.9790625 12.824375 12.9375 11.625 C8.96756101 8.07739494 5.28982837 7 0 7 C-1.04449911 3.86650268 -0.93423645 3.01031744 0 0 Z " fill="#E31572" transform="translate(194,23)"/>
<path d="M0 0 C0.495 0.99 0.495 0.99 1 2 C0.1796875 3.91015625 0.1796875 3.91015625 -1.125 6.0625 C-1.74761719 7.13177734 -1.74761719 7.13177734 -2.3828125 8.22265625 C-4.56252235 10.61823108 -5.77823028 10.58529837 -9 11 C-12.01053074 11.06719473 -15.0103813 10.97724472 -18.01953125 10.87890625 C-19.30738777 10.84348976 -19.30738777 10.84348976 -20.6212616 10.80735779 C-23.35185646 10.73104912 -26.08214396 10.64688452 -28.8125 10.5625 C-30.66860497 10.50924644 -32.52472474 10.45650629 -34.38085938 10.40429688 C-38.92076596 10.27547858 -43.46041317 10.13961628 -48 10 C-48 9.67 -48 9.34 -48 9 C-33.81 9 -19.62 9 -5 9 C-4.34 7.02 -3.68 5.04 -3 3 C-1.375 1.125 -1.375 1.125 0 0 Z " fill="#6CB7B4" transform="translate(378,172)"/>
<path d="M0 0 C0.99 0.33 1.98 0.66 3 1 C3 1.66 3 2.32 3 3 C3.99 3 4.98 3 6 3 C6 3.66 6 4.32 6 5 C6.99 5 7.98 5 9 5 C9 8.63 9 12.26 9 16 C4.49583156 12.32993682 2.23209799 7.25091904 0 2 C0 1.34 0 0.68 0 0 Z " fill="#DE205F" transform="translate(216,153)"/>
<path d="M0 0 C2.97 0.495 2.97 0.495 6 1 C6.0825 1.61875 6.165 2.2375 6.25 2.875 C7.23825442 5.67505419 8.40359985 5.74113932 11 7 C12.25 9.125 12.25 9.125 13 11 C14.32 11 15.64 11 17 11 C17.66 14.3 18.32 17.6 19 21 C16.40325268 18.40325268 14.85424046 16.25334285 12.9375 13.1875 C9.20776251 7.72095343 4.86333617 4.90217444 -1 2 C-0.67 1.34 -0.34 0.68 0 0 Z " fill="#FE9846" transform="translate(335,268)"/>
<path d="M0 0 C0.33 1.32 0.66 2.64 1 4 C0.34 4 -0.32 4 -1 4 C-1.08728882 7.24983 -1.14048658 10.4993575 -1.1875 13.75 C-1.21263672 14.67039063 -1.23777344 15.59078125 -1.26367188 16.5390625 C-1.27333984 17.42851562 -1.28300781 18.31796875 -1.29296875 19.234375 C-1.3086792 20.05131836 -1.32438965 20.86826172 -1.34057617 21.70996094 C-0.92415145 24.51000675 0.32577509 25.77077226 2 28 C1.67 28.99 1.34 29.98 1 31 C0.18357746 29.73168307 -0.62799105 28.46024069 -1.4375 27.1875 C-1.88996094 26.47980469 -2.34242188 25.77210938 -2.80859375 25.04296875 C-5.31475557 20.7455175 -4.88854283 17.35021692 -4.25 12.625 C-4.09015625 11.31789062 -3.9303125 10.01078125 -3.765625 8.6640625 C-3.02700601 5.12924303 -2.05783991 2.92846449 0 0 Z " fill="#F49E4A" transform="translate(229,149)"/>
<path d="M0 0 C0.33 1.32 0.66 2.64 1 4 C0.34 4 -0.32 4 -1 4 C-1.09796875 4.74765625 -1.1959375 5.4953125 -1.296875 6.265625 C-2.52641316 14.36361768 -2.52641316 14.36361768 -5 17.6875 C-7 19 -7 19 -9 19 C-9 20.32 -9 21.64 -9 23 C-9.99 23.33 -10.98 23.66 -12 24 C-10.42195846 18.39523177 -7.73583615 13.64949374 -4.875 8.625 C-4.17310547 7.37783203 -4.17310547 7.37783203 -3.45703125 6.10546875 C-2.30929451 4.06765046 -1.15686718 2.03264431 0 0 Z " fill="#FDA040" transform="translate(242,125)"/>
<path d="M0 0 C0 3.3740594 -0.60913704 4.3744371 -2.3359375 7.1953125 C-2.82320312 7.99324219 -3.31046875 8.79117187 -3.8125 9.61328125 C-4.328125 10.44214844 -4.84375 11.27101563 -5.375 12.125 C-5.88289062 12.96160156 -6.39078125 13.79820312 -6.9140625 14.66015625 C-10.73797936 20.86898968 -10.73797936 20.86898968 -13 22 C-13 20.68 -13 19.36 -13 18 C-12.34 17.67 -11.68 17.34 -11 17 C-10.855625 16.21625 -10.71125 15.4325 -10.5625 14.625 C-9.94345706 11.73613295 -9.32042378 10.76352207 -7 9 C-6.34 9 -5.68 9 -5 9 C-5.20625 8.38125 -5.4125 7.7625 -5.625 7.125 C-5.74875 6.42375 -5.8725 5.7225 -6 5 C-5.34 4.34 -4.68 3.68 -4 3 C-3.67 2.34 -3.34 1.68 -3 1 C-2.01 0.67 -1.02 0.34 0 0 Z " fill="#D61E6F" transform="translate(164,355)"/>
<path d="M0 0 C2.38539216 0.37799921 3.66467648 0.62261103 5.29614258 2.45874023 C5.65861084 3.06919189 6.0210791 3.67964355 6.39453125 4.30859375 C6.79220703 4.97310547 7.18988281 5.63761719 7.59960938 6.32226562 C8.19999023 7.36930664 8.19999023 7.36930664 8.8125 8.4375 C9.23208984 9.13166016 9.65167969 9.82582031 10.08398438 10.54101562 C11.1291382 12.31967114 12.07321737 14.15689504 13 16 C12.67 16.66 12.34 17.32 12 18 C9.5 16.25 9.5 16.25 7 14 C7 12.68 7 11.36 7 10 C5.02 9.34 3.04 8.68 1 8 C1.33 6.35 1.66 4.7 2 3 C1.34 2.67 0.68 2.34 0 2 C0 1.34 0 0.68 0 0 Z " fill="#59558C" transform="translate(178,171)"/>
<path d="M0 0 C3.76933174 3.38118545 6.14458175 7.18499868 8.6875 11.5 C9.09033203 12.16386719 9.49316406 12.82773437 9.90820312 13.51171875 C11.79686859 16.68163967 13.22383416 19.36225296 14 23 C13.34 23 12.68 23 12 23 C11.9175 22.38125 11.835 21.7625 11.75 21.125 C11.18741541 18.81562433 11.18741541 18.81562433 8.9375 17.75 C8.298125 17.5025 7.65875 17.255 7 17 C7.33 15.68 7.66 14.36 8 13 C7.01 12.67 6.02 12.34 5 12 C3.94991347 10.02583732 2.95012124 8.02417134 2 6 C1.34 5.34 0.68 4.68 0 4 C0 2.68 0 1.36 0 0 Z " fill="#D1246E" transform="translate(407,374)"/>
<path d="M0 0 C1.32 0.33 2.64 0.66 4 1 C2.29816715 6.11575056 -0.67753531 10.35015815 -3.625 14.8125 C-4.140625 15.60076172 -4.65625 16.38902344 -5.1875 17.20117188 C-6.45441417 19.1367352 -7.72532964 21.06953942 -9 23 C-9.33 22.01 -9.66 21.02 -10 20 C-9.01 18.515 -9.01 18.515 -8 17 C-7.71125 16.21625 -7.4225 15.4325 -7.125 14.625 C-5.47122909 10.76620122 -2.94740786 7.94740786 0 5 C0.16687448 2.41645782 0.16687448 2.41645782 0 0 Z " fill="#D3206E" transform="translate(185,316)"/>
<path d="M0 0 C-1.6658292 6.16356805 -4.87805286 11.48259656 -8 17 C-8.33 17 -8.66 17 -9 17 C-9 14.36 -9 11.72 -9 9 C-8.01 8.67 -7.02 8.34 -6 8 C-5.896875 7.05125 -5.79375 6.1025 -5.6875 5.125 C-4.89960329 1.54365133 -3.89650761 0 0 0 Z " fill="#E51E67" transform="translate(239,130)"/>
<path d="M0 0 C0.99 0.33 1.98 0.66 3 1 C3.33 3.31 3.66 5.62 4 8 C4.66 8 5.32 8 6 8 C6.268125 8.969375 6.53625 9.93875 6.8125 10.9375 C7.204375 11.948125 7.59625 12.95875 8 14 C8.99 14.33 9.98 14.66 11 15 C11.33 17.97 11.66 20.94 12 24 C8.79302463 19.85892017 6.30175969 15.43789232 3.75 10.875 C3.27820313 10.05128906 2.80640625 9.22757813 2.3203125 8.37890625 C1.87945312 7.59128906 1.43859375 6.80367187 0.984375 5.9921875 C0.57928711 5.27401855 0.17419922 4.55584961 -0.24316406 3.81591797 C-0.49291992 3.21666504 -0.74267578 2.61741211 -1 2 C-0.67 1.34 -0.34 0.68 0 0 Z " fill="#D2216D" transform="translate(201,124)"/>
<path d="M0 0 C0.33 0.66 0.66 1.32 1 2 C1.66 2 2.32 2 3 2 C2.34 4.31 1.68 6.62 1 9 C0.01 9 -0.98 9 -2 9 C-2.99 9.33 -3.98 9.66 -5 10 C-5.67156616 11.93618425 -5.67156616 11.93618425 -6 14 C-6.33 14.66 -6.66 15.32 -7 16 C-7.66 16 -8.32 16 -9 16 C-7.56691865 12.04093183 -5.66858051 8.71281819 -3.375 5.1875 C-2.74335938 4.21167969 -2.11171875 3.23585938 -1.4609375 2.23046875 C-0.73777344 1.12638672 -0.73777344 1.12638672 0 0 Z " fill="#ED186B" transform="translate(150,284)"/>
<path d="M0 0 C3.2500454 2.16669693 4.1296594 3.6489731 6 7 C6.8353125 8.2684375 6.8353125 8.2684375 7.6875 9.5625 C9 12 9 12 9 16 C9.66 16 10.32 16 11 16 C11.33 18.31 11.66 20.62 12 23 C8.81387292 19.14365201 6.62969027 14.78024848 4.3125 10.375 C3.89677734 9.59898437 3.48105469 8.82296875 3.05273438 8.0234375 C2.66021484 7.2809375 2.26769531 6.5384375 1.86328125 5.7734375 C1.50532471 5.09716309 1.14736816 4.42088867 0.77856445 3.72412109 C0 2 0 2 0 0 Z " fill="#72B0B6" transform="translate(240,372)"/>
<path d="M0 0 C5.95302544 0.29765127 9.68924801 3.14876979 14 7 C14 7.33 14 7.66 14 8 C6.25 7.25 6.25 7.25 4 5 C4.33 4.34 4.66 3.68 5 3 C3.35 3 1.7 3 0 3 C0 2.01 0 1.02 0 0 Z " fill="#F3B323" transform="translate(464,271)"/>
<path d="M0 0 C0.99 0 1.98 0 3 0 C3.33 1.65 3.66 3.3 4 5 C5.65 4.67 7.3 4.34 9 4 C8.67 5.98 8.34 7.96 8 10 C2.98886765 8.5682479 1.05530451 6.01554307 -2 2 C-1.34 1.34 -0.68 0.68 0 0 Z " fill="#E1186F" transform="translate(83,418)"/>
<path d="M0 0 C0.66 0.33 1.32 0.66 2 1 C-2.54105352 7.931987 -7.22404928 12.89129715 -15.5 14.8125 C-16.7375 14.9053125 -16.7375 14.9053125 -18 15 C-17 13 -17 13 -14.625 11.875 C-12 11 -12 11 -9 11 C-9 10.34 -9 9.68 -9 9 C-8.01 9 -7.02 9 -6 9 C-5.67 7.68 -5.34 6.36 -5 5 C-4.01 5 -3.02 5 -2 5 C-2 4.01 -2 3.02 -2 2 C-1.34 2 -0.68 2 0 2 C0 1.34 0 0.68 0 0 Z " fill="#D0246C" transform="translate(125,416)"/>
<path d="M0 0 C2.97100833 2.78977035 5.19659143 5.58148913 7.3125 9.0625 C7.84488281 9.91972656 8.37726563 10.77695312 8.92578125 11.66015625 C10 14 10 14 9 17 C8.34 16.67 7.68 16.34 7 16 C6.65657551 14.66923011 6.32380126 13.33568021 6 12 C4.15811388 9.94729537 4.15811388 9.94729537 2 9 C1.67 8.01 1.34 7.02 1 6 C0.01 5.34 -0.98 4.68 -2 4 C-1.34 2.68 -0.68 1.36 0 0 Z " fill="#DB1B6C" transform="translate(395,355)"/>
<path d="M0 0 C2 2.5 2 2.5 4 5 C5.11375 6.3303125 5.11375 6.3303125 6.25 7.6875 C8 10 8 10 8 12 C6.68 12.33 5.36 12.66 4 13 C2.4375 11.25 2.4375 11.25 1 9 C1.3125 6.75 1.3125 6.75 2 5 C1.34 5 0.68 5 0 5 C0 3.35 0 1.7 0 0 Z " fill="#E5206C" transform="translate(368,313)"/>
<path d="M0 0 C0.66 0.33 1.32 0.66 2 1 C-0.64 5.95 -3.28 10.9 -6 16 C-6.66 14.68 -7.32 13.36 -8 12 C-7.01 11.67 -6.02 11.34 -5 11 C-5.309375 9.8553125 -5.309375 9.8553125 -5.625 8.6875 C-6 6 -6 6 -4 3 C-3.34 3 -2.68 3 -2 3 C-1.34 2.01 -0.68 1.02 0 0 Z " fill="#EEB62B" transform="translate(288,144)"/>
<path d="M0 0 C3.12060274 4.68090411 2.59447779 9.51836181 2 15 C0.94997139 17.99942956 -0.32190016 20.27308776 -2 23 C-3.33332095 20.3333581 -2.67102033 18.83319697 -2 16 C-1.34 16 -0.68 16 0 16 C0 10.72 0 5.44 0 0 Z " fill="#CC246D" transform="translate(421,397)"/>
<path d="M0 0 C3.85523273 0.56634392 6.45707633 1.64608684 9.6875 3.8125 C10.45449219 4.31394531 11.22148437 4.81539063 12.01171875 5.33203125 C14.10479071 7.08790891 14.98253798 8.49171127 16 11 C15.01 10.34 14.02 9.68 13 9 C10.37468476 8.83286431 10.37468476 8.83286431 8 9 C7.979375 8.401875 7.95875 7.80375 7.9375 7.1875 C7.09543384 4.56685398 7.09543384 4.56685398 3.4375 3.25 C2.303125 2.8375 1.16875 2.425 0 2 C0 1.34 0 0.68 0 0 Z " fill="#E22263" transform="translate(331,269)"/>
<path d="M0 0 C0.33 0.66 0.66 1.32 1 2 C-0.1796875 4.2421875 -0.1796875 4.2421875 -1.875 6.875 C-3.82653296 9.91576066 -5.35131727 12.42392857 -6 16 C-6.99 16 -7.98 16 -9 16 C-9 16.99 -9 17.98 -9 19 C-9.66 19 -10.32 19 -11 19 C-11.33 19.99 -11.66 20.98 -12 22 C-12.33 21.34 -12.66 20.68 -13 20 C-11.92016602 17.93701172 -11.92016602 17.93701172 -10.25390625 15.4296875 C-9.66416016 14.53378906 -9.07441406 13.63789063 -8.46679688 12.71484375 C-7.52416992 11.30912109 -7.52416992 11.30912109 -6.5625 9.875 C-5.62567383 8.45767578 -5.62567383 8.45767578 -4.66992188 7.01171875 C-3.12036702 4.66964347 -1.56349921 2.33277997 0 0 Z " fill="#6AB5A4" transform="translate(324,164)"/>
<path d="M0 0 C-4.89839001 3.89359206 -8.7950962 4.7242265 -15 5 C-15 4.34 -15 3.68 -15 3 C-13.02 2.67 -11.04 2.34 -9 2 C-9 1.34 -9 0.68 -9 0 C-5.62182575 -0.84454356 -3.32534757 -1.10844919 0 0 Z " fill="#F2B625" transform="translate(266,184)"/>
<path d="M0 0 C1.65 0 3.3 0 5 0 C5.12375 0.804375 5.2475 1.60875 5.375 2.4375 C5.684375 3.7059375 5.684375 3.7059375 6 5 C6.66 5.33 7.32 5.66 8 6 C8 6.99 8 7.98 8 9 C4.54074837 7.7508258 1.85306797 6.32472205 -1 4 C-0.67 2.68 -0.34 1.36 0 0 Z " fill="#F4B822" transform="translate(232,178)"/>
<path d="M0 0 C0.33 0.66 0.66 1.32 1 2 C0.22265625 3.9453125 0.22265625 3.9453125 -0.9375 6.125 C-1.31777344 6.84945313 -1.69804688 7.57390625 -2.08984375 8.3203125 C-2.54037109 9.15175781 -2.54037109 9.15175781 -3 10 C-2.34 10.33 -1.68 10.66 -1 11 C-1 11.66 -1 12.32 -1 13 C-2.65 13.33 -4.3 13.66 -6 14 C-6.33 15.32 -6.66 16.64 -7 18 C-6.72875522 10.67639103 -4.03848732 6.0268557 0 0 Z " fill="#DE1B74" transform="translate(85,386)"/>
<path d="M0 0 C0.93423645 3.01031744 1.04449911 3.86650268 0 7 C-0.66 7 -1.32 7 -2 7 C-2.144375 7.763125 -2.28875 8.52625 -2.4375 9.3125 C-3 12 -3 12 -4 15 C-4.66 15 -5.32 15 -6 15 C-6 15.66 -6 16.32 -6 17 C-6.66 17 -7.32 17 -8 17 C-6.3341708 10.83643195 -3.12194714 5.51740344 0 0 Z " fill="#FB9D3C" transform="translate(251,108)"/>
<path d="M0 0 C0.99 0 1.98 0 3 0 C3.268125 0.928125 3.53625 1.85625 3.8125 2.8125 C4.94940437 5.86419067 5.74759307 6.8499752 8 9 C8 9.99 8 10.98 8 12 C8.66 12 9.32 12 10 12 C10.66 14.31 11.32 16.62 12 19 C8.75561206 16.15459828 6.61133276 12.54157114 4.3125 8.9375 C3.68891602 7.98133789 3.68891602 7.98133789 3.05273438 7.00585938 C0 2.24880696 0 2.24880696 0 0 Z " fill="#FE9D49" transform="translate(354,289)"/>
<path d="M0 0 C4.23431576 3.60700972 6.4692099 8.14586161 9 13 C8.01 13 7.02 13 6 13 C5.67 12.01 5.34 11.02 5 10 C4.175 9.54625 3.35 9.0925 2.5 8.625 C0 7 0 7 -0.875 4.4375 C-1 2 -1 2 0 0 Z " fill="#5C538F" transform="translate(171,157)"/>
<path d="M0 0 C2 3 2 3 2 7 C-0.574302 9.99175638 -2.23077307 11.74359102 -6 13 C-4.31326082 8.50202887 -2.18326108 4.27113698 0 0 Z " fill="#F1B32B" transform="translate(292,32)"/>
<path d="M0 0 C0 3.88291746 -1.37860494 5.46752535 -3.5 8.6875 C-4.1496875 9.68136719 -4.799375 10.67523438 -5.46875 11.69921875 C-6.22671875 12.83810547 -6.22671875 12.83810547 -7 14 C-7.33 12.68 -7.66 11.36 -8 10 C-7.34 10 -6.68 10 -6 10 C-6 8.68 -6 7.36 -6 6 C-5.34 6 -4.68 6 -4 6 C-3.67 4.35 -3.34 2.7 -3 1 C-2.01 0.67 -1.02 0.34 0 0 Z " fill="#FD9F42" transform="translate(135,306)"/>
<path d="M0 0 C2 1 4 2 6 3 C6 3.66 6 4.32 6 5 C6.66 5 7.32 5 8 5 C7.67 7.31 7.34 9.62 7 12 C4.39954125 9.6975881 3.15260817 7.50103323 1.8125 4.3125 C1.46832031 3.50425781 1.12414062 2.69601563 0.76953125 1.86328125 C0.51558594 1.24839844 0.26164063 0.63351563 0 0 Z " fill="#D81E73" transform="translate(190,106)"/>
<path d="M0 0 C4.77576339 0.4682121 8.04476345 1.24331998 12 4 C8.82994658 5.58502671 5.50875122 5.60385067 2 6 C2.33 5.01 2.66 4.02 3 3 C2.01 2.67 1.02 2.34 0 2 C0 1.34 0 0.68 0 0 Z M0 6 C2 7 2 7 2 7 Z " fill="#68B9A4" transform="translate(400,71)"/>
<path d="M0 0 C0 0.66 0 1.32 0 2 C-0.61875 2.2475 -1.2375 2.495 -1.875 2.75 C-4.11738845 3.80962759 -4.11738845 3.80962759 -4.9375 5.875 C-6.36898744 8.73797489 -8.45441327 10.12430451 -11 12 C-10.58424938 7.14957612 -8.58340022 5.15680495 -5 2 C-2 0 -2 0 0 0 Z " fill="#DE1D6F" transform="translate(316,271)"/>
<path d="M0 0 C0.33 0.66 0.66 1.32 1 2 C-0.24125182 4.61161731 -1.5310524 7.10501786 -2.9375 9.625 C-3.32357422 10.33140625 -3.70964844 11.0378125 -4.10742188 11.765625 C-5.06448696 13.51433651 -6.03134031 15.25768432 -7 17 C-8.1406356 13.57809319 -7.83489425 12.73829769 -6.6875 9.4375 C-6.42324219 8.65246094 -6.15898437 7.86742187 -5.88671875 7.05859375 C-4.61665461 4.11003076 -2.24683783 2.24683783 0 0 Z " fill="#5A4F8B" transform="translate(223,440)"/>
<path d="M0 0 C0.66 0.33 1.32 0.66 2 1 C-2.455 7.93 -2.455 7.93 -7 15 C-7.33 14.01 -7.66 13.02 -8 12 C-7.01439389 10.65599167 -6.01241685 9.32392972 -5 8 C-4.28566879 5.35065178 -4.28566879 5.35065178 -4 3 C-3.01 2.67 -2.02 2.34 -1 2 C-0.67 1.34 -0.34 0.68 0 0 Z " fill="#D12170" transform="translate(135,400)"/>
<path d="M0 0 C2.475 0.495 2.475 0.495 5 1 C6 4 6 4 6.375 5.8125 C7.21264079 8.74424276 8.59100069 11.30452305 10 14 C9.34 14 8.68 14 8 14 C6.53058996 11.87850237 5.18781192 9.77758018 3.875 7.5625 C3.50246094 6.95083984 3.12992187 6.33917969 2.74609375 5.70898438 C0 1.15730884 0 1.15730884 0 0 Z " fill="#D11B6E" transform="translate(344,369)"/>
<path d="M0 0 C0 2.95274099 -0.43891831 4.49058403 -1.5 7.1875 C-1.7784375 7.90292969 -2.056875 8.61835938 -2.34375 9.35546875 C-2.5603125 9.89816406 -2.776875 10.44085938 -3 11 C-4.32 11 -5.64 11 -7 11 C-7 7.22089522 -6.00296038 6.53893899 -3.5 3.8125 C-2.8503125 3.09707031 -2.200625 2.38164062 -1.53125 1.64453125 C-1.0259375 1.10183594 -0.520625 0.55914062 0 0 Z " fill="#E31E63" transform="translate(159,273)"/>
<path d="M0 0 C0.33 0.99 0.66 1.98 1 3 C0.67 3.66 0.34 4.32 0 5 C0.66 5.33 1.32 5.66 2 6 C1.38125 6.226875 0.7625 6.45375 0.125 6.6875 C-2.61410209 8.37929835 -3.05024472 9.99244161 -4 13 C-4.99 12.34 -5.98 11.68 -7 11 C-4.69 7.37 -2.38 3.74 0 0 Z " fill="#6CB6A5" transform="translate(361,105)"/>
<path d="M0 0 C0.66 0 1.32 0 2 0 C3.1484375 1.609375 3.1484375 1.609375 4.375 3.75 C6.28242023 6.94224039 8.19835311 9.50964721 11 12 C10.01 13.485 10.01 13.485 9 15 C7.49726004 12.68923915 5.99770448 10.37652089 4.5 8.0625 C4.07074219 7.40314453 3.64148438 6.74378906 3.19921875 6.06445312 C0 1.11328125 0 1.11328125 0 0 Z " fill="#D12371" transform="translate(327,342)"/>
<path d="M0 0 C0.66 0 1.32 0 2 0 C0.23570801 4.97209562 -2.3939166 9.43438061 -5 14 C-5.66 12.68 -6.32 11.36 -7 10 C-6.01 10 -5.02 10 -4 10 C-4.33 8.35 -4.66 6.7 -5 5 C-4.34 5 -3.68 5 -3 5 C-2.67 4.34 -2.34 3.68 -2 3 C-1.34 3 -0.68 3 0 3 C0 2.01 0 1.02 0 0 Z " fill="#ECB42F" transform="translate(279,160)"/>
<path d="M0 0 C2.64 0.66 5.28 1.32 8 2 C7.34 4.31 6.68 6.62 6 9 C3.59927045 6.11912454 1.52708963 3.43595166 0 0 Z " fill="#D91874" transform="translate(359,393)"/>
<path d="M0 0 C0.66 0 1.32 0 2 0 C0.53967505 5.31027254 -1.98320986 9.46330032 -5 14 C-7 11 -7 11 -7 9 C-6.360625 8.7525 -5.72125 8.505 -5.0625 8.25 C-2.81258459 7.18437567 -2.81258459 7.18437567 -2.25 4.875 C-2.1675 4.25625 -2.085 3.6375 -2 3 C-1.34 3 -0.68 3 0 3 C0 2.01 0 1.02 0 0 Z " fill="#D71F6F" transform="translate(195,303)"/>
<path d="M0 0 C0.66 0 1.32 0 2 0 C2 0.99 2 1.98 2 3 C3.65 2.67 5.3 2.34 7 2 C7 3.98 7 5.96 7 8 C6.34 8 5.68 8 5 8 C4.67 8.66 4.34 9.32 4 10 C3.32845067 8.71086513 2.66291141 7.41859796 2 6.125 C1.62875 5.40570313 1.2575 4.68640625 0.875 3.9453125 C0 2 0 2 0 0 Z " fill="#D91A74" transform="translate(185,96)"/>
<path d="M0 0 C0.33 0.66 0.66 1.32 1 2 C-0.3984375 4.6015625 -0.3984375 4.6015625 -2.375 7.625 C-3.34566406 9.12933594 -3.34566406 9.12933594 -4.3359375 10.6640625 C-4.88507813 11.43492187 -5.43421875 12.20578125 -6 13 C-6.33 13 -6.66 13 -7 13 C-7 10.69 -7 8.38 -7 6 C-5.68 6 -4.36 6 -3 6 C-2.690625 5.195625 -2.38125 4.39125 -2.0625 3.5625 C-1 1 -1 1 0 0 Z " fill="#FE9F44" transform="translate(143,293)"/>
<path d="M0 0 C-2 2 -2 2 -5.375 3.375 C-8.79312929 4.90726485 -10.59034962 6.20480556 -13 9 C-12.4375 5.6875 -12.4375 5.6875 -11 2 C-7.2198069 -0.24011443 -4.23478516 -1.86330547 0 0 Z " fill="#606598" transform="translate(320,186)"/>
<path d="M0 0 C4.43379675 2.21689838 6.46636932 4.77728219 9 9 C8.67 9.66 8.34 10.32 8 11 C7.278125 10.21625 6.55625 9.4325 5.8125 8.625 C3.16700959 6.15587562 1.39626389 5.06739722 -2 4 C-1.34 3.67 -0.68 3.34 0 3 C0 2.01 0 1.02 0 0 Z " fill="#DA216F" transform="translate(201,26)"/>
<path d="M0 0 C0.66 0.66 1.32 1.32 2 2 C1.73314868 6.66989808 -0.62840087 10.09833692 -3 14 C-4.39832283 9.80503152 -2.79443468 7.93395296 -1 4 C-0.62691369 2.67723944 -0.26953585 1.34767923 0 0 Z " fill="#5D5D8E" transform="translate(248,389)"/>
<path d="M0 0 C0.66 0.99 1.32 1.98 2 3 C1 5 1 5 -1 6 C-1.309375 6.66 -1.61875 7.32 -1.9375 8 C-3 10 -3 10 -6 11 C-4.54955729 6.89041233 -2.48889248 3.56741255 0 0 Z " fill="#DA1E6E" transform="translate(116,337)"/>
<path d="M0 0 C1.39195915 4.17587745 -0.17676781 6.13474776 -2 10 C-2.66 10 -3.32 10 -4 10 C-4 10.99 -4 11.98 -4 13 C-4.66 13 -5.32 13 -6 13 C-4.58707905 8.1725201 -2.57025846 4.2837641 0 0 Z " fill="#EEB531" transform="translate(285,45)"/>
<path d="M0 0 C1.0013988 3.00419641 1.51421457 5.87709365 2 9 C-2.39158329 7.5361389 -2.87947433 5.02168662 -5 1 C-3.35 0.67 -1.7 0.34 0 0 Z " fill="#E21B70" transform="translate(380,417)"/>
<path d="M0 0 C0.33 0 0.66 0 1 0 C1 2.64 1 5.28 1 8 C0.01 8 -0.98 8 -2 8 C-2.33 8.66 -2.66 9.32 -3 10 C-3.66 10 -4.32 10 -5 10 C-3.66654496 6.40992874 -2.1056769 3.20429093 0 0 Z " fill="#E71E65" transform="translate(138,303)"/>
<path d="M0 0 C1.20628008 2.33214148 2.1654738 4.49642139 3 7 C1.68 7 0.36 7 -1 7 C-1.33 7.66 -1.66 8.32 -2 9 C-2.66 9 -3.32 9 -4 9 C-2.94124926 5.59687262 -1.99097846 2.98646769 0 0 Z " fill="#EAB62B" transform="translate(21,279)"/>
<path d="M0 0 C2.64 1.98 5.28 3.96 8 6 C7.67 7.65 7.34 9.3 7 11 C4.0444623 8.24829249 1.88436685 5.58029701 0 2 C0 1.34 0 0.68 0 0 Z " fill="#D41F6F" transform="translate(318,327)"/>
<path d="M0 0 C3.36591427 2.72478774 4.44226276 6.06856792 6 10 C5.01 10.495 5.01 10.495 4 11 C4 10.34 4 9.68 4 9 C3.34 9 2.68 9 2 9 C0.50178941 5.62902617 0 3.79557881 0 0 Z " fill="#66B5A2" transform="translate(320,415)"/>
<path d="M0 0 C3.68006822 3.38168431 5.9785845 6.42521756 8 11 C4.71573897 9.94434467 3.42848444 8.38339648 1.75 5.5 C0 2 0 2 0 0 Z " fill="#5B548A" transform="translate(120,77)"/>
<path d="M0 0 C0.33 0.99 0.66 1.98 1 3 C1.99 2.67 2.98 2.34 4 2 C4 2.66 4 3.32 4 4 C2.34467377 5.01866229 0.67739862 6.01810813 -1 7 C-1.33 7.66 -1.66 8.32 -2 9 C-2.66 9 -3.32 9 -4 9 C-2.94124926 5.59687262 -1.99097846 2.98646769 0 0 Z " fill="#EEB430" transform="translate(275,64)"/>
<path d="M0 0 C1.953125 0.8359375 1.953125 0.8359375 4 2 C4.75 4.625 4.75 4.625 5 7 C5.66 7 6.32 7 7 7 C7 8.65 7 10.3 7 12 C3.95950199 8.35140239 2.03481238 4.2555467 0 0 Z " fill="#6DB5A4" transform="translate(278,444)"/>
<path d="M0 0 C3 1 3 1 4.75 3.8125 C6.05483179 7.13982105 6.02866653 7.79584277 5 11 C4.16151196 9.54462432 3.32936066 8.08559627 2.5 6.625 C1.80390625 5.40683594 1.80390625 5.40683594 1.09375 4.1640625 C0 2 0 2 0 0 Z " fill="#76B1BC" transform="translate(234,361)"/>
<path d="M0 0 C3 1 3 1 4.75 4.3125 C6 8 6 8 5 12 C4.01 9.03 3.02 6.06 2 3 C1.34 3 0.68 3 0 3 C0 2.01 0 1.02 0 0 Z " fill="#6AB1A0" transform="translate(193,193)"/>
<path d="M0 0 C2.97246802 2.54782974 4.41535288 5.45340883 6 9 C6 9.66 6 10.32 6 11 C5.34 11 4.68 11 4 11 C3.01 9.02 2.02 7.04 1 5 C0.67 5 0.34 5 0 5 C0 3.35 0 1.7 0 0 Z " fill="#D02B71" transform="translate(243,98)"/>
<path d="M0 0 C2.97246802 2.54782974 4.41535288 5.45340883 6 9 C6 9.66 6 10.32 6 11 C3 10 3 10 1.3125 7.1875 C0 4 0 4 0 0 Z " fill="#CF2370" transform="translate(231,76)"/>
<path d="M0 0 C0.66 0.33 1.32 0.66 2 1 C1.67 1.99 1.34 2.98 1 4 C0.34 4 -0.32 4 -1 4 C-1.144375 4.61875 -1.28875 5.2375 -1.4375 5.875 C-2 8 -2 8 -3 10 C-3.66 10 -4.32 10 -5 10 C-3.84414715 6.08788267 -2.64465038 3.1254959 0 0 Z " fill="#CC2370" transform="translate(168,29)"/>
<path d="M0 0 C0 3 0 3 -2 5.1875 C-2.66 5.785625 -3.32 6.38375 -4 7 C-4.66 6.67 -5.32 6.34 -6 6 C-5.67 5.01 -5.34 4.02 -5 3 C-5.33 2.34 -5.66 1.68 -6 1 C-3 0 -3 0 0 0 Z " fill="#5B508D" transform="translate(207,469)"/>
<path d="M0 0 C1.8125 0.125 1.8125 0.125 4 1 C5.8125 3.875 5.8125 3.875 7 7 C6.67 7.99 6.34 8.98 6 10 C4.99723227 8.52270825 3.99785546 7.04311423 3 5.5625 C2.443125 4.73878906 1.88625 3.91507812 1.3125 3.06640625 C0 1 0 1 0 0 Z " fill="#D51D6F" transform="translate(366,404)"/>
<path d="M0 0 C0.66 0 1.32 0 2 0 C2.75 1.6875 2.75 1.6875 3 4 C1.0625 6.75 1.0625 6.75 -1 9 C-1.33 7.35 -1.66 5.7 -2 4 C-1.34 4 -0.68 4 0 4 C0 2.68 0 1.36 0 0 Z " fill="#DC1B75" transform="translate(172,337)"/>
<path d="M0 0 C0.33 1.32 0.66 2.64 1 4 C0.01 4.33 -0.98 4.66 -2 5 C-2.67156616 6.93618425 -2.67156616 6.93618425 -3 9 C-3.33 9.66 -3.66 10.32 -4 11 C-4.66 11 -5.32 11 -6 11 C-4.54955729 6.89041233 -2.48889248 3.56741255 0 0 Z " fill="#E0235C" transform="translate(147,289)"/>
<path d="M0 0 C0.33 0.66 0.66 1.32 1 2 C0.67 2.99 0.34 3.98 0 5 C0.33 5.66 0.66 6.32 1 7 C0.34 7 -0.32 7 -1 7 C-1.33 7.66 -1.66 8.32 -2 9 C-2.99 9 -3.98 9 -5 9 C-3.7508258 5.54074837 -2.32472205 2.85306797 0 0 Z " fill="#68B9A5" transform="translate(348,126)"/>
<path d="M0 0 C5.57142857 5.14285714 5.57142857 5.14285714 6 9 C5.34 9 4.68 9 4 9 C4 8.34 4 7.68 4 7 C3.01 6.67 2.02 6.34 1 6 C0.67 4.02 0.34 2.04 0 0 Z " fill="#EBB136" transform="translate(331,29)"/>
<path d="M0 0 C2 2 2 2 2 6 C2.99 6.33 3.98 6.66 5 7 C5 8.65 5 10.3 5 12 C1.35224614 8.11690718 0.41474367 5.28798182 0 0 Z " fill="#D81C69" transform="translate(162,51)"/>
<path d="M0 0 C0.33 0.66 0.66 1.32 1 2 C0.00390625 4.1640625 0.00390625 4.1640625 -1.4375 6.625 C-1.91058594 7.44226563 -2.38367188 8.25953125 -2.87109375 9.1015625 C-3.24363281 9.72804688 -3.61617187 10.35453125 -4 11 C-4.65234375 9.234375 -4.65234375 9.234375 -5 7 C-4.00390625 5.078125 -4.00390625 5.078125 -2.5625 3.25 C-2.08941406 2.63640625 -1.61632812 2.0228125 -1.12890625 1.390625 C-0.75636719 0.93171875 -0.38382813 0.4728125 0 0 Z " fill="#5E558C" transform="translate(237,414)"/>
<path d="M0 0 C1.09658936 3.28976808 0.79953138 4.71303767 0 8 C-0.66 8 -1.32 8 -2 8 C-2 8.66 -2 9.32 -2 10 C-2.66 10 -3.32 10 -4 10 C-2.8905928 6.51329166 -1.73662334 3.22515763 0 0 Z " fill="#5E558E" transform="translate(202,373)"/>
<path d="M0 0 C0.68359375 1.765625 0.68359375 1.765625 1 4 C-0.21484375 5.921875 -0.21484375 5.921875 -1.9375 7.75 C-2.50339844 8.36359375 -3.06929688 8.9771875 -3.65234375 9.609375 C-4.31943359 10.29773438 -4.31943359 10.29773438 -5 11 C-5 7.58678765 -4.33132534 6.60527115 -2.5 3.8125 C-2.0359375 3.09707031 -1.571875 2.38164062 -1.09375 1.64453125 C-0.7328125 1.10183594 -0.371875 0.55914062 0 0 Z " fill="#CC2B72" transform="translate(93,373)"/>
<path d="M0 0 C0.66 0 1.32 0 2 0 C2 2.97 2 5.94 2 9 C-1 6 -1 6 -2 4 C-1.0625 1.875 -1.0625 1.875 0 0 Z " fill="#536084" transform="translate(223,334)"/>
<path d="M0 0 C1.2065625 0.0309375 1.2065625 0.0309375 2.4375 0.0625 C-0.48235315 2.54978231 -2.70469907 3.77316493 -6.5625 4.0625 C-8.875 3.125 -8.875 3.125 -10.5625 2.0625 C-9.428125 1.918125 -8.29375 1.77375 -7.125 1.625 C-3.80350664 1.10055368 -3.09809271 0.07556324 0 0 Z " fill="#EFB432" transform="translate(470.5625,316.9375)"/>
<path d="M0 0 C0.66 0.33 1.32 0.66 2 1 C1.02471263 2.33617352 0.04466681 3.6688751 -0.9375 5 C-1.48277344 5.7425 -2.02804688 6.485 -2.58984375 7.25 C-3.28787109 8.11625 -3.28787109 8.11625 -4 9 C-4.33 9 -4.66 9 -5 9 C-5.3125 6.75 -5.3125 6.75 -5 4 C-2.5 1.6875 -2.5 1.6875 0 0 Z " fill="#FE9B4C" transform="translate(154,276)"/>
<path d="M0 0 C0 0.66 0 1.32 0 2 C-2.375 3.6875 -2.375 3.6875 -5 5 C-5.66 4.67 -6.32 4.34 -7 4 C-6.67 3.67 -6.34 3.34 -6 3 C-6.66 2.34 -7.32 1.68 -8 1 C-5.07175348 0.02391783 -3.04386724 -0.08226668 0 0 Z " fill="#FEA348" transform="translate(166,268)"/>
<path d="M0 0 C0.99 0.33 1.98 0.66 3 1 C3.94921875 3.06640625 3.94921875 3.06640625 4.6875 5.5625 C4.93886719 6.38878906 5.19023437 7.21507812 5.44921875 8.06640625 C5.63097656 8.70449219 5.81273437 9.34257812 6 10 C5.34 10 4.68 10 4 10 C3.32845067 8.71086513 2.66291141 7.41859796 2 6.125 C1.62875 5.40570313 1.2575 4.68640625 0.875 3.9453125 C0 2 0 2 0 0 Z " fill="#CB1F70" transform="translate(216,153)"/>
<path d="M0 0 C1 3 1 3 1 6 C1.66 6.33 2.32 6.66 3 7 C2.67 7.99 2.34 8.98 2 10 C0.35 7.03 -1.3 4.06 -3 1 C-2.01 0.67 -1.02 0.34 0 0 Z " fill="#5F568D" transform="translate(83,106)"/>
<path d="M0 0 C0.66 0.33 1.32 0.66 2 1 C-0.475 5.455 -0.475 5.455 -3 10 C-3.33 10 -3.66 10 -4 10 C-4 8.35 -4 6.7 -4 5 C-3.34 5 -2.68 5 -2 5 C-2 4.01 -2 3.02 -2 2 C-1.34 2 -0.68 2 0 2 C0 1.34 0 0.68 0 0 Z " fill="#E52058" transform="translate(249,109)"/>
<path d="M0 0 C2.74277578 3.19990508 4.6302836 6.00499382 6 10 C5.01 9.67 4.02 9.34 3 9 C3 8.01 3 7.02 3 6 C1.68 5.67 0.36 5.34 -1 5 C-0.67 3.35 -0.34 1.7 0 0 Z " fill="#595189" transform="translate(130,91)"/>
<path d="M0 0 C0.66 0.99 1.32 1.98 2 3 C1.34 4.32 0.68 5.64 0 7 C-0.66 7 -1.32 7 -2 7 C-2.66 7.66 -3.32 8.32 -4 9 C-3.35455571 5.51460083 -1.89865603 2.97180943 0 0 Z " fill="#6BB5A3" transform="translate(373,86)"/>
<path d="M0 0 C0.99 0 1.98 0 3 0 C1.66511872 3.59391114 0.03977277 6.75490696 -2 10 C-2.33 9.34 -2.66 8.68 -3 8 C-2.39351421 6.31050386 -1.72159424 4.64363134 -1 3 C-0.67 2.01 -0.34 1.02 0 0 Z " fill="#EBB138" transform="translate(325,74)"/>
<path d="M0 0 C6.875 3.75 6.875 3.75 8 6 C5.69 5.67 3.38 5.34 1 5 C0.67 3.35 0.34 1.7 0 0 Z " fill="#F4B037" transform="translate(323,23)"/>
<path d="M0 0 C0.33 0.66 0.66 1.32 1 2 C-0.25 5.5625 -0.25 5.5625 -2 9 C-2.99 9.33 -3.98 9.66 -5 10 C-3.66511872 6.40608886 -2.03977277 3.24509304 0 0 Z " fill="#CD2371" transform="translate(85,386)"/>
<path d="M0 0 C2.52259061 1.97420135 2.9929808 2.96745642 3.6875 6.1875 C3.790625 7.115625 3.89375 8.04375 4 9 C1.24338912 6.51015791 -0.60746455 4.79450934 -1 1 C-0.67 0.67 -0.34 0.34 0 0 Z " fill="#D91F71" transform="translate(355,383)"/>
<path d="M0 0 C4.42857143 5.14285714 4.42857143 5.14285714 5 9 C3.0625 8.4375 3.0625 8.4375 1 7 C0.25 3.375 0.25 3.375 0 0 Z " fill="#576397" transform="translate(236,367)"/>
<path d="M0 0 C0.6875 1.8125 0.6875 1.8125 1 4 C-0.375 5.5625 -0.375 5.5625 -2 7 C-2.33 7.99 -2.66 8.98 -3 10 C-3.66 10 -4.32 10 -5 10 C-3.66511872 6.40608886 -2.03977277 3.24509304 0 0 Z " fill="#CD1F70" transform="translate(105,354)"/>
<path d="M0 0 C0.66 0.33 1.32 0.66 2 1 C1.67 5.29 1.34 9.58 1 14 C0.67 14 0.34 14 0 14 C-0.19456705 12.04235617 -0.38044247 10.08384679 -0.5625 8.125 C-0.66691406 7.03445313 -0.77132812 5.94390625 -0.87890625 4.8203125 C-1 2 -1 2 0 0 Z " fill="#76ABB4" transform="translate(225,331)"/>
<path d="M0 0 C2.4375 0.375 2.4375 0.375 5 1 C5.33 1.66 5.66 2.32 6 3 C6.99 3.33 7.98 3.66 9 4 C9 4.66 9 5.32 9 6 C4.75177626 5.52797514 2.80010291 3.03344482 0 0 Z " fill="#ECB331" transform="translate(23,313)"/>
<path d="M0 0 C0.33 0.66 0.66 1.32 1 2 C-2.75 7.875 -2.75 7.875 -5 9 C-5 7.68 -5 6.36 -5 5 C-4.01 5 -3.02 5 -2 5 C-2 3.68 -2 2.36 -2 1 C-1.34 0.67 -0.68 0.34 0 0 Z " fill="#EFAF37" transform="translate(481,306)"/>
<path d="M0 0 C0.33 0.66 0.66 1.32 1 2 C0.00390625 3.9453125 0.00390625 3.9453125 -1.4375 6.125 C-1.91058594 6.84945312 -2.38367188 7.57390625 -2.87109375 8.3203125 C-3.24363281 8.87460938 -3.61617188 9.42890625 -4 10 C-4.33 9.01 -4.66 8.02 -5 7 C-3.58511552 4.23760649 -2.19636905 2.19636905 0 0 Z " fill="#6FB2A1" transform="translate(378,172)"/>
<path d="M0 0 C2.475 0.495 2.475 0.495 5 1 C5.66 2.98 6.32 4.96 7 7 C6.34 7 5.68 7 5 7 C4.87625 6.071875 4.87625 6.071875 4.75 5.125 C4.18741541 2.81562433 4.18741541 2.81562433 1.9375 1.75 C1.298125 1.5025 0.65875 1.255 0 1 C0 0.67 0 0.34 0 0 Z " fill="#DD1A70" transform="translate(414,390)"/>
<path d="M0 0 C3.4375 1.3125 3.4375 1.3125 7 3 C7.33 3.99 7.66 4.98 8 6 C2.33846154 4.52307692 2.33846154 4.52307692 0.625 1.875 C0.41875 1.25625 0.2125 0.6375 0 0 Z " fill="#6CA9B1" transform="translate(186,186)"/>
<path d="M0 0 C-0.66 0 -1.32 0 -2 0 C-2 0.66 -2 1.32 -2 2 C-4.64 2.33 -7.28 2.66 -10 3 C-4.375 -1.3125 -4.375 -1.3125 0 0 Z " fill="#F0B136" transform="translate(310,23)"/>
<path d="M0 0 C2.79872437 2.52788007 4.45773019 4.20411134 5 8 C2 7 2 7 0 4 C0 2.68 0 1.36 0 0 Z " fill="#DE295A" transform="translate(347,280)"/>
<path d="M0 0 C0.33 0 0.66 0 1 0 C1 1.98 1 3.96 1 6 C-0.98 6.99 -0.98 6.99 -3 8 C-1.125 2.25 -1.125 2.25 0 0 Z " fill="#70B6A3" transform="translate(20,191)"/>
<path d="M0 0 C0.66 0.33 1.32 0.66 2 1 C0.69593116 3.01920337 -0.63823419 5.01924973 -2 7 C-2.33 7 -2.66 7 -3 7 C-3 5.02 -3 3.04 -3 1 C-2.01 1.33 -1.02 1.66 0 2 C0 1.34 0 0.68 0 0 Z " fill="#F1B62E" transform="translate(271,175)"/>
<path d="M0 0 C1.37562854 1.28965176 2.70766393 2.62689293 4 4 C4 4.66 4 5.32 4 6 C2.68 6.33 1.36 6.66 0 7 C0 4.66666667 0 2.33333333 0 0 Z " fill="#5D5091" transform="translate(137,103)"/>
</svg>
